<?xml version="1.0" encoding="UTF-8"?>
<svg xmlns="http://www.w3.org/2000/svg" version="1.1" viewBox="0 0 210.4 19.2">
  <defs>
    <style>
      .cls-1 {
        fill: none;
      }

      .cls-2 {
        fill: #1d1d1b;
      }
    </style>
  </defs>
  <!-- Generator: Adobe Illustrator 28.7.3, SVG Export Plug-In . SVG Version: 1.2.0 Build 164)  -->
  <g>
    <g id="Livello_2">
      <g id="Livello_1-2">
        <g>
          <g>
            <path class="cls-2" d="M19.2,19.1h-2.9c-.6,0-1-.1-1.2-.4l-7.2-8.1h-3.9v7.9c0,.2,0,.3-.3.5-.2.1-.5.2-.8.2H.6c-.3,0-.6,0-.8-.2-.2-.1-.3-.3-.3-.5V.6c0-.2,0-.3.3-.5C0,0,.3,0,.6,0h12.9C15,0,16.1.1,16.8.6c.8.4,1,1.1,1,1.9v5.6c0,.8-.3,1.5-1,1.9-.8.4-1.9.6-3.3.6h-.7l7.1,7.8c.4.4,0,.7-.8.7h0ZM4,8h9.3V2.5H4v5.5Z"/>
            <path class="cls-2" d="M47.5.6c.8.4,1,1.1,1,1.9v14c0,.8-.3,1.5-1,1.9-.8.4-1.9.6-3.3.6h-13.1c-1.4,0-2.5-.2-3.3-.6-.7-.4-1-1.1-1-1.9V2.5c0-.8.3-1.5,1-1.9S29.7,0,31.1,0h13.1C45.6,0,46.7.1,47.5.6ZM44,16.5V2.5h-12.7v14h12.7Z"/>
            <path class="cls-2" d="M75.7,10.7v5.9c0,.8-.3,1.5-1,1.9-.8.4-1.9.6-3.3.6h-15.2c-.3,0-.6,0-.8-.2-.2-.1-.3-.3-.3-.5V.6c0-.2,0-.3.3-.5C55.7,0,55.9,0,56.2,0h10.7C68.4,0,69.5.1,70.2.6c.8.4,1,1.1,1,1.9v5.6h.2c1.4,0,2.5.1,3.3.6.8.4,1,1.1,1,1.9h0ZM59.7,8.2h7.1V2.5h-7.1s0,5.6,0,5.6ZM71.2,10.7h-11.6v5.8h11.6v-5.8Z"/>
            <path class="cls-2" d="M103.1.6c.8.4,1,1.1,1,1.9v14c0,.8-.3,1.5-1,1.9-.8.4-1.9.6-3.3.6h-13.1c-1.4,0-2.5-.2-3.3-.6-.7-.4-1-1.1-1-1.9V2.5c0-.8.3-1.5,1-1.9S85.3,0,86.7,0h13.1C101.2,0,102.3.1,103.1.6ZM99.6,16.5V2.5h-12.7v14h12.7Z"/>
            <path class="cls-2" d="M133.6.6v1.3c0,.2,0,.3-.3.5s-.5.1-.8.1h-8.1v15.9c0,.2,0,.3-.3.5s-.5.2-.8.2h-2.4c-.3,0-.6,0-.8-.2-.2-.1-.3-.3-.3-.5V2.5h-8.1c-.3,0-.6,0-.8-.1s-.3-.3-.3-.5V.6c0-.2,0-.3.3-.5s.5-.1.8-.1h20.7c.3,0,.6,0,.8.1s.3.3.3.5Z"/>
            <path class="cls-2" d="M153.4,2.4c-.2.1-.5.1-.8.1h-3.4v14h3.4c.3,0,.6,0,.8.2s.3.3.3.5v1.3c0,.2,0,.3-.3.5s-.5.2-.8.2h-11.3c-.3,0-.6,0-.8-.2-.2-.1-.3-.3-.3-.5v-1.3c0-.2,0-.3.3-.5s.5-.2.8-.2h3.4V2.5h-3.4c-.3,0-.6,0-.8-.1s-.3-.3-.3-.5V.6c0-.2,0-.3.3-.5S141,0,141.3,0h11.3c.3,0,.6,0,.8.1s.3.3.3.5v1.3c0,.2,0,.3-.3.5Z"/>
            <path class="cls-2" d="M181,.6c.8.4,1,1.1,1,1.9v14c0,.8-.3,1.5-1,1.9-.8.4-1.9.6-3.3.6h-13.1c-1.4,0-2.5-.2-3.3-.6-.7-.4-1-1.1-1-1.9V2.5c0-.8.3-1.5,1-1.9S163.3,0,164.7,0h13.1c1.4,0,2.5.1,3.3.6ZM177.6,16.5V2.5h-12.7v14h12.7Z"/>
            <path class="cls-2" d="M210.4.6v17.9c0,.2,0,.3-.3.5s-.5.2-.8.2h-2.4c-.3,0-.6,0-.8-.2-.2-.1-.3-.3-.3-.5v-7.3l-12.7-7.4v14.9c0,.2,0,.3-.3.5s-.5.2-.8.2h-2.4c-.3,0-.6,0-.8-.2-.2-.1-.3-.3-.3-.5V.6c0-.2,0-.3.3-.5S189.5,0,189.8,0h1.9c.8,0,1.2,0,1.8.4l12.4,7.2V.6c0-.2,0-.3.3-.5s.5-.1.8-.1h2.4c.3,0,.6,0,.8.1s.3.3.3.5h0Z"/>
          </g>
          <g>
            <path d="M34.7,5.9h0c.7,0,1.3.6,1.3,1.3v2.5c0,.7-.6,1.3-1.3,1.3h0c-.7,0-1.3-.6-1.3-1.3v-2.5c0-.7.6-1.3,1.3-1.3Z"/>
            <path d="M35.6,13.9h4.4c-1.4,2.1-3.1,2.1-4.4,0h0Z"/>
            <path d="M40.6,5.9h0c.7,0,1.3.6,1.3,1.3v2.5c0,.7-.6,1.3-1.3,1.3h0c-.7,0-1.3-.6-1.3-1.3v-2.5c0-.7.6-1.3,1.3-1.3Z"/>
          </g>
          <g>
            <path d="M91.6,6.8v2.9c0,.6-.5,1.1-1.1,1.1h-.4c-.6,0-1.1-.5-1.1-1.1v-2.4"/>
            <path d="M91.2,14.9h4.4c-1.4-1.5-3.1-1.5-4.4,0h0Z"/>
            <path d="M89.1,7.3h.2c.7,0,1.3-.1,1.9-.4h.4"/>
            <path d="M94.9,6.8v2.9c0,.6.5,1.1,1.1,1.1h.4c.6,0,1.1-.5,1.1-1.1v-2.4"/>
            <path d="M97.4,7.3h-.2c-.7,0-1.3-.1-1.9-.4h-.4"/>
          </g>
          <g>
            <path d="M169.6,7.9v1.7c0,.6-.5,1.1-1.1,1.1h-.4c-.6,0-1.1-.5-1.1-1.1v-3c0,0,0-.1,0-.2"/>
            <circle cx="171.4" cy="14.3" r="1.1"/>
            <line class="cls-1" x1="167.1" y1="6.4" x2="169.6" y2="7.9"/>
            <path d="M172.9,7.9v1.7c0,.6.5,1.1,1.1,1.1h.4c.6,0,1.1-.5,1.1-1.1v-3c0,0,0-.1,0-.2"/>
            <line class="cls-1" x1="175.4" y1="6.4" x2="172.9" y2="7.9"/>
          </g>
        </g>
      </g>
    </g>
  </g>
</svg>