<?xml version="1.0" encoding="UTF-8" standalone="no"?>
<!DOCTYPE svg PUBLIC "-//W3C//DTD SVG 1.1//EN" "http://www.w3.org/Graphics/SVG/1.1/DTD/svg11.dtd">
<svg xmlns="http://www.w3.org/2000/svg" version="1.1" viewBox="0 0 2896 724">
<path fill="#173385" d="
  M 324.69 37.99
  C 319.86 40.75 321.32 45.43 320.51 49.98
  C 320.15 52.05 321.10 61.69 316.90 57.82
  Q 310.81 52.21 305.00 47.29
  A 3.27 3.25 -30.4 0 0 302.25 46.58
  Q 294.38 48.14 287.71 49.56
  Q 283.47 50.46 285.29 46.89
  Q 287.54 42.47 289.57 37.93
  C 291.07 34.57 292.93 32.54 290.79 28.70
  Q 287.12 22.08 283.53 15.82
  Q 282.06 13.25 284.98 13.75
  Q 291.96 14.94 299.00 15.50
  Q 303.72 15.88 305.92 12.92
  Q 310.07 7.35 315.17 2.94
  Q 317.02 1.33 317.50 3.74
  Q 318.82 10.43 320.00 17.14
  C 320.47 19.84 321.87 21.74 324.25 22.75
  Q 331.07 25.64 337.17 28.40
  Q 339.84 29.60 337.26 30.99
  Q 330.93 34.42 324.69 37.99
  Z"
/>
<path fill="#69cbf4" d="
  M 1319.53 47.83
  Q 1326.19 49.98 1333.89 48.65
  C 1338.10 47.92 1341.32 47.99 1345.25 48.00
  A 1.83 1.51 56.6 0 1 1346.16 48.28
  C 1349.45 50.33 1360.75 44.28 1359.25 51.75
  C 1358.35 56.21 1358.11 58.63 1359.26 62.79
  C 1360.09 65.78 1356.66 66.00 1354.47 66.00
  Q 1339.86 66.00 1325.25 65.99
  Q 1321.63 65.98 1319.38 66.35
  Q 1316.99 66.74 1317.14 69.15
  Q 1317.78 79.64 1318.66 88.80
  C 1319.21 94.59 1322.53 100.26 1323.00 105.25
  C 1325.60 132.66 1308.87 149.24 1285.14 158.08
  C 1281.70 159.36 1279.40 160.71 1275.55 159.81
  A 1.55 1.46 74.9 0 1 1274.74 159.31
  Q 1269.01 152.52 1266.06 147.94
  Q 1262.98 143.15 1268.30 141.98
  C 1280.56 139.29 1294.98 135.47 1301.22 123.37
  A 1.57 1.18 -43.8 0 0 1301.37 122.45
  Q 1300.91 120.35 1298.17 121.38
  C 1292.50 123.51 1287.69 123.58 1282.33 124.96
  C 1273.06 127.33 1265.46 121.52 1260.16 114.62
  C 1252.65 104.86 1254.91 95.87 1261.69 85.94
  C 1267.47 77.47 1280.64 74.84 1289.98 77.31
  C 1293.29 78.18 1298.24 77.96 1300.17 74.69
  C 1302.13 71.40 1302.29 67.30 1298.19 65.31
  Q 1296.40 64.45 1295.00 64.75
  C 1290.52 65.72 1285.99 65.65 1281.83 65.88
  Q 1258.98 67.12 1235.51 69.06
  A 0.88 0.87 -2.7 0 1 1234.56 68.20
  Q 1234.46 61.38 1234.49 54.16
  C 1234.51 50.55 1235.56 48.09 1239.88 50.17
  Q 1240.42 50.43 1240.81 50.42
  L 1297.71 48.80
  A 0.95 0.91 11.4 0 0 1298.52 48.29
  Q 1300.22 44.83 1298.98 42.19
  Q 1298.75 41.70 1298.75 41.24
  C 1298.75 38.07 1297.02 31.86 1302.76 32.42
  Q 1307.57 32.89 1312.27 31.83
  Q 1317.10 30.73 1316.85 35.07
  C 1316.68 38.04 1316.75 41.03 1316.75 44.02
  Q 1316.75 46.93 1319.53 47.83
  Z
  M 1294.46 91.01
  C 1284.32 86.04 1270.71 94.41 1276.09 105.99
  A 1.60 1.40 3.9 0 0 1276.76 106.66
  C 1281.21 108.92 1283.13 111.46 1288.79 109.90
  C 1294.44 108.34 1299.43 106.03 1300.20 99.78
  C 1300.71 95.64 1297.92 92.70 1294.46 91.01
  Z"
/>
<path fill="#69cbf4" d="
  M 2419.44 82.69
  C 2426.62 75.69 2439.98 74.88 2449.25 77.75
  Q 2450.46 78.12 2453.75 77.58
  A 1.33 1.20 12.4 0 0 2454.57 77.11
  C 2456.76 74.25 2458.06 65.62 2452.54 65.16
  Q 2452.50 65.16 2448.45 65.34
  Q 2419.72 66.63 2391.06 69.14
  A 0.50 0.48 -4.5 0 1 2390.51 68.69
  L 2389.56 51.43
  A 0.93 0.88 -1.8 0 1 2390.48 50.50
  C 2411.14 50.27 2431.84 49.13 2452.35 48.76
  A 2.09 2.08 -80.5 0 0 2454.28 47.38
  Q 2455.63 43.65 2455.30 40.05
  C 2455.04 37.28 2453.01 35.40 2455.44 32.13
  A 1.04 0.96 17.3 0 1 2456.24 31.75
  L 2466.76 31.75
  A 2.03 1.35 50.1 0 1 2467.67 32.02
  Q 2469.29 32.95 2471.26 32.61
  A 0.86 0.76 -22.7 0 1 2472.07 32.89
  C 2473.97 35.33 2473.55 41.44 2472.49 44.77
  Q 2471.79 46.98 2473.96 47.82
  C 2476.38 48.76 2477.95 49.10 2480.71 48.81
  Q 2488.44 48.00 2496.20 48.28
  C 2501.93 48.49 2506.85 48.13 2512.43 47.97
  A 0.79 0.79 -1.0 0 1 2513.25 48.76
  L 2513.25 65.19
  A 0.81 0.81 -89.9 0 1 2512.44 66.00
  Q 2495.50 66.00 2479.75 66.00
  Q 2475.44 66.00 2472.96 67.76
  A 1.08 1.00 75.6 0 0 2472.53 68.56
  Q 2471.83 78.96 2473.45 89.26
  C 2474.14 93.66 2476.26 97.64 2477.05 101.63
  C 2477.60 104.41 2478.27 107.09 2478.38 109.82
  C 2479.51 136.04 2457.73 153.48 2434.52 160.09
  Q 2431.52 160.94 2431.50 160.94
  C 2428.36 161.21 2427.34 155.53 2426.43 153.31
  Q 2425.29 150.55 2422.31 149.19
  C 2420.51 148.36 2420.90 145.99 2420.82 144.59
  C 2420.55 140.29 2426.98 141.32 2430.18 140.08
  Q 2433.40 138.83 2435.37 138.31
  Q 2445.69 135.55 2453.57 128.07
  Q 2455.37 126.35 2455.65 122.63
  A 1.30 1.29 5.0 0 0 2454.49 121.25
  C 2448.74 120.66 2441.65 125.71 2435.16 125.62
  C 2427.85 125.51 2420.90 121.94 2416.31 116.29
  C 2407.64 105.63 2409.74 92.14 2419.44 82.69
  Z
  M 2455.2338 96.7161
  A 13.02 10.18 -14.7 0 0 2440.0567 90.1732
  A 13.02 10.18 -14.7 0 0 2430.0462 103.3239
  A 13.02 10.18 -14.7 0 0 2445.2233 109.8668
  A 13.02 10.18 -14.7 0 0 2455.2338 96.7161
  Z"
/>
<path fill="#69cbf4" d="
  M 1439.29 48.47
  Q 1441.78 41.32 1443.78 33.88
  Q 1444.28 32.05 1446.11 32.52
  Q 1451.45 33.89 1456.24 34.86
  C 1458.02 35.22 1461.46 34.97 1463.81 36.25
  A 0.78 0.78 -73.8 0 1 1464.22 37.00
  Q 1463.92 41.22 1461.81 46.81
  Q 1453.00 70.15 1445.75 86.00
  C 1444.43 88.89 1444.36 91.13 1448.83 90.16
  Q 1450.26 89.84 1451.53 89.13
  C 1459.65 84.60 1465.68 83.07 1474.00 88.50
  Q 1482.29 93.91 1482.49 104.00
  C 1482.66 112.63 1482.02 121.44 1482.97 130.03
  C 1483.63 135.93 1488.51 138.52 1494.06 136.81
  C 1507.64 132.63 1512.80 113.91 1513.24 101.40
  Q 1513.31 99.37 1514.99 100.49
  L 1529.88 110.42
  Q 1531.65 111.60 1531.30 113.72
  C 1527.82 134.59 1516.57 151.66 1494.74 156.19
  C 1477.40 159.79 1462.48 147.10 1463.75 129.50
  Q 1464.46 119.70 1463.75 113.20
  C 1463.42 110.12 1463.23 107.71 1461.98 105.56
  Q 1461.07 104.00 1459.26 104.00
  C 1449.77 104.01 1443.42 110.97 1439.16 118.62
  Q 1430.28 134.58 1424.60 151.95
  Q 1423.63 154.92 1422.75 156.60
  Q 1421.79 158.46 1419.99 157.39
  Q 1411.89 152.57 1404.55 151.94
  A 1.18 1.18 10.2 0 1 1403.51 150.45
  Q 1405.05 144.96 1407.00 139.54
  Q 1423.40 94.10 1439.29 48.47
  Z"
/>
<path fill="#69cbf4" d="
  M 2334.06 49.50
  C 2328.15 59.41 2319.54 46.01 2316.28 41.17
  A 1.34 1.18 35.3 0 1 2316.06 40.25
  C 2316.83 35.30 2321.21 30.78 2326.55 33.28
  Q 2326.85 33.42 2327.50 33.48
  Q 2327.70 33.50 2327.89 33.57
  A 0.88 0.64 87.4 0 1 2328.35 34.14
  Q 2329.58 38.92 2332.69 41.81
  C 2333.90 42.94 2337.42 47.79 2334.79 48.90
  A 1.71 1.31 -1.8 0 0 2334.06 49.50
  Z"
/>
<path fill="#69cbf4" d="
  M 1084.77 77.81
  Q 1088.78 73.03 1084.43 68.55
  A 1.51 1.45 -17.3 0 0 1083.57 68.12
  C 1076.61 67.19 1069.85 68.36 1063.30 67.74
  A 1.63 1.60 -21.6 0 1 1062.42 67.37
  C 1059.68 65.07 1058.68 57.94 1059.90 55.07
  Q 1060.53 53.57 1063.13 52.86
  Q 1064.46 52.50 1065.84 52.50
  C 1072.45 52.50 1079.33 53.43 1085.48 50.64
  A 2.58 2.57 78.0 0 0 1087.00 48.29
  L 1087.00 36.33
  Q 1087.00 33.50 1089.83 33.50
  C 1092.47 33.50 1101.75 32.83 1103.49 34.20
  C 1106.44 36.53 1104.85 42.33 1103.56 45.31
  C 1101.82 49.35 1104.63 49.44 1107.15 50.50
  Q 1108.19 50.93 1109.25 50.75
  Q 1118.06 49.24 1126.20 49.02
  A 1.88 1.82 -4.0 0 1 1128.12 50.63
  L 1129.53 63.39
  A 1.13 1.08 -8.3 0 1 1128.61 64.57
  C 1119.52 66.27 1110.97 67.01 1102.55 70.32
  A 2.45 2.44 -10.8 0 0 1101.00 72.59
  C 1100.97 78.73 1106.35 84.78 1110.02 91.71
  C 1113.55 98.38 1112.27 103.28 1108.95 110.24
  Q 1104.95 118.63 1100.10 126.59
  C 1094.04 136.55 1101.84 139.10 1110.26 139.83
  Q 1121.92 140.85 1133.46 139.10
  C 1147.94 136.91 1154.18 134.10 1153.11 117.76
  Q 1152.92 114.88 1151.44 111.93
  C 1150.09 109.22 1146.49 103.87 1147.77 100.96
  A 0.71 0.68 15.8 0 1 1148.50 100.57
  Q 1152.25 101.07 1155.96 101.72
  Q 1164.25 103.18 1169.69 109.56
  C 1170.68 110.73 1171.12 115.38 1171.32 116.50
  C 1173.48 128.68 1174.34 141.16 1163.72 149.19
  C 1150.56 159.14 1126.06 158.64 1109.75 158.00
  C 1096.94 157.50 1082.87 155.32 1078.13 141.87
  Q 1077.42 139.87 1078.52 138.05
  C 1081.30 133.44 1078.23 126.09 1073.03 124.70
  C 1068.05 123.36 1064.72 121.53 1062.81 116.78
  C 1061.67 113.94 1059.46 112.67 1059.70 108.99
  A 1.52 1.32 34.0 0 0 1059.46 108.09
  Q 1058.72 106.93 1058.77 105.56
  A 1.89 0.99 -42.2 0 1 1059.10 104.66
  Q 1059.95 103.37 1059.79 101.75
  C 1059.08 94.51 1066.53 85.93 1072.06 82.06
  Q 1073.85 80.82 1083.95 78.31
  A 1.66 1.43 9.4 0 0 1084.77 77.81
  Z
  M 1079.0889 110.2686
  A 10.12 8.65 125.6 0 0 1092.0133 107.0754
  A 10.12 8.65 125.6 0 0 1090.8711 93.8114
  A 10.12 8.65 125.6 0 0 1077.9467 97.0046
  A 10.12 8.65 125.6 0 0 1079.0889 110.2686
  Z"
/>
<path fill="#69cbf4" d="
  M 1960.10 57.99
  C 1958.49 61.19 1958.22 60.51 1954.77 60.03
  C 1935.80 57.41 1912.63 57.20 1893.25 51.50
  C 1888.20 50.02 1894.36 38.59 1896.19 35.69
  Q 1898.00 32.82 1901.19 33.71
  C 1920.82 39.22 1939.99 40.20 1960.44 40.78
  A 0.82 0.79 1.1 0 1 1961.23 41.57
  L 1961.10 54.26
  Q 1961.09 56.03 1960.10 57.99
  Z"
/>
<path fill="#69cbf4" d="
  M 2239.66 73.59
  L 2219.07 74.18
  A 0.53 0.53 86.6 0 1 2218.52 73.69
  Q 2217.89 65.96 2218.39 58.83
  Q 2218.52 57.00 2220.35 57.00
  L 2241.43 57.00
  A 2.18 2.18 9.0 0 0 2243.50 55.50
  Q 2244.22 53.31 2244.79 50.98
  C 2245.33 48.81 2244.90 45.96 2246.04 43.45
  Q 2246.25 42.98 2246.22 42.50
  C 2246.05 38.98 2246.00 31.70 2251.31 33.69
  C 2254.77 34.98 2259.80 34.85 2263.51 34.44
  Q 2265.97 34.17 2266.01 36.65
  C 2266.11 42.63 2264.31 48.38 2263.35 54.15
  A 1.01 0.99 3.7 0 0 2264.38 55.30
  L 2286.01 54.48
  A 0.96 0.94 85.7 0 1 2286.98 55.33
  Q 2287.72 61.74 2287.25 68.02
  Q 2287.02 71.03 2284.10 71.78
  C 2277.94 73.36 2270.76 72.87 2264.24 73.94
  C 2260.80 74.51 2260.55 75.70 2259.75 78.75
  C 2258.35 84.06 2257.44 90.06 2256.28 94.73
  Q 2248.65 125.56 2237.52 155.42
  Q 2236.78 157.42 2234.64 157.55
  C 2231.99 157.71 2229.40 156.77 2226.72 155.36
  C 2223.49 153.66 2220.82 153.80 2217.48 152.55
  Q 2215.77 151.90 2216.26 150.13
  C 2217.13 146.99 2218.49 144.50 2219.59 141.93
  Q 2233.60 109.43 2240.47 74.53
  A 0.80 0.79 4.6 0 0 2239.66 73.59
  Z"
/>
<path fill="#69cbf4" d="
  M 2093.91 55.77
  Q 2093.03 53.99 2091.09 54.42
  Q 2082.96 56.26 2073.86 55.68
  Q 2073.30 55.64 2072.74 55.70
  C 2068.54 56.13 2062.27 56.77 2058.47 55.00
  A 0.82 0.78 13.0 0 1 2058.00 54.28
  L 2058.05 40.80
  A 0.92 0.88 75.9 0 1 2058.48 40.04
  Q 2060.46 38.87 2063.50 39.00
  Q 2078.20 39.62 2095.56 37.94
  Q 2102.90 37.22 2103.95 37.35
  C 2109.18 37.95 2112.34 42.22 2115.76 45.63
  Q 2117.42 47.30 2116.61 49.61
  L 2105.30 81.88
  Q 2104.39 84.49 2107.13 85.22
  Q 2118.05 88.13 2129.75 92.25
  C 2132.74 93.30 2134.46 91.55 2134.54 88.53
  Q 2134.88 76.17 2135.52 63.81
  Q 2135.72 59.91 2139.30 60.13
  C 2144.09 60.42 2148.53 60.50 2153.27 61.50
  A 1.90 1.89 -84.9 0 1 2154.76 63.29
  Q 2155.00 70.81 2153.77 78.38
  C 2152.90 83.76 2153.03 89.58 2151.76 95.18
  C 2150.18 102.18 2157.92 104.10 2162.36 106.61
  C 2168.86 110.28 2173.65 112.61 2170.01 120.75
  Q 2168.52 124.08 2167.52 127.58
  C 2166.69 130.51 2164.94 132.48 2161.86 130.59
  Q 2161.46 130.34 2160.94 130.31
  Q 2159.14 130.19 2158.35 128.42
  Q 2155.47 121.96 2148.30 121.31
  A 2.26 2.26 -76.0 0 0 2146.01 122.69
  C 2139.70 137.68 2127.26 149.98 2114.02 159.04
  C 2111.54 160.73 2110.04 160.66 2108.19 158.31
  Q 2105.20 154.54 2100.37 150.65
  C 2094.02 145.55 2100.64 142.86 2104.70 140.45
  Q 2117.98 132.57 2126.52 119.70
  Q 2128.41 116.84 2129.40 112.88
  A 1.46 1.44 26.4 0 0 2128.88 111.37
  Q 2127.12 110.02 2125.66 109.65
  C 2116.84 107.38 2109.99 103.44 2101.84 102.06
  A 0.91 0.90 -74.3 0 0 2100.84 102.63
  C 2095.46 116.45 2090.90 132.54 2080.89 143.64
  C 2069.53 156.23 2053.41 153.23 2044.88 139.15
  Q 2035.63 123.90 2043.42 107.68
  Q 2051.46 90.91 2069.31 85.72
  Q 2074.41 84.24 2082.69 82.94
  Q 2085.97 82.42 2087.24 79.13
  C 2088.53 75.83 2095.11 58.19 2093.91 55.77
  Z
  M 2057.25 122.25
  C 2055.01 130.64 2066.85 135.33 2070.57 126.42
  C 2074.15 117.84 2078.73 111.64 2080.82 102.69
  A 1.79 1.79 13.2 0 0 2079.49 100.54
  C 2068.27 97.91 2059.53 113.72 2057.25 122.25
  Z"
/>
<rect fill="#69cbf4" x="-5.68" y="-11.00" transform="translate(2309.14,49.09) rotate(-38.6)" width="11.36" height="22.00" rx="5.43"/>
<path fill="#69cbf4" d="
  M 1691.88 59.67
  Q 1691.68 62.31 1689.05 62.65
  C 1682.66 63.46 1675.25 63.68 1669.60 66.39
  C 1654.54 73.61 1630.07 92.13 1632.75 111.50
  C 1634.99 127.73 1649.22 129.56 1662.42 133.28
  C 1667.30 134.65 1671.47 133.59 1676.49 135.85
  A 0.61 0.61 -70.7 0 1 1676.82 136.55
  L 1672.36 154.79
  A 1.36 1.35 -80.2 0 1 1670.91 155.82
  C 1649.22 153.56 1623.39 148.14 1614.29 125.15
  C 1605.26 102.31 1619.08 82.12 1636.44 68.88
  C 1638.31 67.45 1640.48 65.26 1637.38 63.54
  A 1.63 1.32 -29.3 0 0 1636.44 63.38
  Q 1608.49 67.09 1580.35 68.90
  C 1578.31 69.03 1575.84 70.96 1574.03 68.43
  A 1.74 1.38 -68.2 0 1 1573.75 67.49
  L 1573.75 49.48
  A 0.53 0.53 -0.6 0 1 1574.27 48.95
  C 1587.46 48.71 1602.76 47.54 1613.59 47.11
  Q 1662.77 45.16 1673.25 44.25
  Q 1681.48 43.53 1689.51 43.50
  A 1.52 1.52 84.7 0 1 1691.00 44.74
  Q 1692.43 52.60 1691.88 59.67
  Z"
/>
<path fill="#69cbf4" d="
  M 1140.57 52.86
  Q 1143.89 50.03 1147.43 47.48
  C 1151.34 44.66 1152.52 44.13 1156.44 47.66
  Q 1169.31 59.24 1182.18 73.15
  A 2.29 1.98 -70.6 0 1 1182.73 74.55
  L 1182.87 77.68
  A 0.86 0.76 74.5 0 1 1182.50 78.44
  C 1177.84 81.31 1174.93 87.28 1168.37 86.78
  A 1.68 1.66 -13.3 0 1 1167.09 86.00
  Q 1156.59 69.22 1143.06 57.19
  Q 1141.05 55.40 1140.35 53.65
  A 0.73 0.67 -31.8 0 1 1140.57 52.86
  Z"
/>
<path fill="#173385" d="
  M 164.33 81.44
  A 0.93 0.93 12.0 0 1 165.17 82.73
  Q 164.62 84.04 163.58 85.08
  Q 158.49 90.13 153.31 96.45
  Q 152.25 97.75 152.62 99.50
  L 155.77 114.12
  Q 156.49 117.44 153.33 116.09
  Q 147.50 113.60 141.66 110.71
  C 137.92 108.85 136.84 109.26 133.50 111.25
  Q 127.34 114.93 121.21 118.05
  Q 119.51 118.91 119.75 117.01
  Q 120.71 109.38 121.50 101.75
  Q 121.86 98.21 119.81 96.46
  Q 114.27 91.76 109.06 86.44
  Q 107.02 84.34 109.88 83.75
  Q 116.19 82.45 122.25 81.50
  C 126.44 80.85 127.35 80.10 129.09 76.11
  Q 131.65 70.19 134.32 64.30
  Q 135.54 61.60 137.03 64.16
  Q 140.48 70.06 144.13 76.46
  C 147.01 81.51 153.43 80.36 157.79 80.94
  Q 161.04 81.37 164.33 81.44
  Z"
/>
<path fill="#173385" d="
  M 295.95 64.93
  Q 298.13 61.68 299.49 65.35
  L 303.07 74.95
  Q 303.73 76.72 305.50 77.24
  Q 310.12 78.60 315.01 79.71
  C 322.21 81.36 309.99 88.56 308.15 90.17
  Q 306.42 91.69 306.78 93.95
  Q 307.68 99.63 307.06 105.56
  A 0.83 0.83 18.0 0 1 305.82 106.19
  Q 301.75 103.86 297.90 101.20
  C 295.44 99.51 294.33 98.19 291.02 99.55
  Q 285.50 101.84 280.33 103.33
  Q 278.74 103.79 279.19 102.20
  C 280.06 99.07 283.80 89.38 281.69 86.81
  Q 277.56 81.80 274.16 77.45
  Q 272.44 75.25 275.24 75.25
  L 287.25 75.25
  Q 289.01 75.25 290.02 73.75
  L 295.95 64.93
  Z"
/>
<path fill="#69cbf4" d="
  M 1681.94 69.57
  Q 1682.99 68.24 1684.65 67.97
  C 1694.00 66.44 1691.77 72.96 1696.44 77.06
  C 1698.53 78.90 1700.86 85.32 1696.30 86.01
  Q 1695.80 86.09 1695.41 86.36
  Q 1692.85 88.14 1689.80 87.55
  A 0.85 0.78 86.5 0 1 1689.18 86.95
  Q 1687.29 80.27 1681.60 76.34
  A 1.49 1.29 12.8 0 1 1681.04 75.58
  Q 1680.01 72.00 1681.94 69.57
  Z"
/>
<path fill="#69cbf4" d="
  M 1875.48 79.25
  A 0.90 0.89 -8.6 0 1 1876.23 78.25
  C 1882.53 77.24 1888.99 76.64 1895.14 75.62
  C 1913.32 72.59 1931.82 70.28 1950.21 72.99
  Q 1969.11 75.78 1976.04 90.96
  C 1982.70 105.54 1978.30 122.16 1967.38 133.63
  C 1951.89 149.88 1933.44 154.71 1912.08 158.40
  Q 1909.19 158.89 1906.59 158.77
  A 0.96 0.96 84.1 0 1 1905.72 158.06
  C 1904.07 151.88 1899.90 147.98 1898.72 142.37
  Q 1898.22 139.98 1900.61 139.48
  Q 1905.22 138.50 1910.02 137.89
  C 1927.37 135.69 1956.40 127.32 1958.00 104.75
  Q 1958.31 100.40 1955.70 97.02
  C 1944.50 82.54 1901.42 93.73 1886.35 97.72
  Q 1883.23 98.54 1879.33 98.79
  A 1.19 1.16 -5.8 0 1 1878.08 97.80
  L 1875.48 79.25
  Z"
/>
<path fill="#173385" d="
  M 102.97 88.38
  A 1.55 1.53 -1.4 0 1 104.20 89.54
  C 105.50 95.02 101.76 94.12 97.96 93.90
  Q 72.96 92.48 50.80 80.49
  A 1.86 1.84 9.6 0 1 49.86 79.18
  C 48.88 73.28 54.59 75.30 57.30 76.64
  Q 71.35 83.58 86.71 86.35
  C 91.36 87.18 97.58 87.39 102.97 88.38
  Z"
/>
<path fill="#69cbf4" d="
  M 1663.79 78.41
  C 1668.26 71.72 1676.66 81.44 1678.49 85.54
  Q 1679.59 88.03 1682.08 90.44
  A 1.05 1.04 -49.3 0 1 1682.18 91.84
  Q 1680.04 94.60 1676.92 96.45
  Q 1675.12 97.51 1673.65 96.02
  Q 1667.90 90.22 1663.60 82.23
  Q 1662.55 80.27 1663.79 78.41
  Z"
/>
<path fill="#69cbf4" d="
  M 2278.63 96.22
  Q 2276.55 95.75 2276.19 93.65
  C 2275.51 89.60 2274.69 81.33 2279.69 79.69
  Q 2285.55 77.76 2294.75 77.04
  A 1.63 1.20 51.8 0 1 2295.66 77.29
  C 2297.35 78.35 2298.71 77.28 2300.05 77.13
  Q 2313.30 75.67 2326.64 75.97
  C 2329.12 76.03 2332.01 75.23 2332.28 78.67
  C 2332.58 82.53 2333.24 86.11 2333.06 90.04
  C 2332.90 93.30 2333.71 95.39 2329.00 95.00
  Q 2322.48 94.46 2292.91 95.40
  C 2288.40 95.54 2283.54 97.32 2278.63 96.22
  Z"
/>
<path fill="#173385" d="
  M 169.15 91.37
  Q 167.18 88.86 170.81 86.74
  A 1.86 1.62 27.9 0 1 171.75 86.52
  C 184.90 87.02 195.05 85.92 209.53 83.06
  C 226.56 79.69 244.42 77.40 261.73 77.97
  C 265.42 78.10 269.22 78.75 267.56 83.58
  A 1.79 1.78 -79.6 0 1 265.82 84.79
  C 246.01 84.21 228.35 85.97 209.29 89.90
  Q 197.33 92.36 185.08 92.70
  C 181.44 92.80 171.93 94.93 169.15 91.37
  Z"
/>
<path fill="#173385" d="
  M 320.69 89.69
  C 322.44 86.95 324.82 88.40 327.35 89.74
  C 352.75 103.23 377.19 123.67 390.90 149.54
  C 392.00 151.63 393.02 155.76 389.55 155.75
  Q 386.96 155.75 385.73 153.47
  C 372.07 128.09 348.23 107.97 323.06 94.70
  C 320.86 93.54 318.99 92.33 320.69 89.69
  Z"
/>
<path fill="#173385" d="
  M 289.56 109.25
  C 290.24 106.51 291.80 105.02 294.60 106.51
  Q 296.37 107.46 295.94 109.42
  Q 292.57 124.96 286.31 139.56
  Q 284.72 143.26 283.51 144.80
  A 1.46 1.36 10.2 0 1 282.70 145.32
  Q 278.29 146.42 279.03 141.31
  Q 279.20 140.08 279.69 138.94
  Q 285.79 124.48 289.56 109.25
  Z"
/>
<path fill="#69cbf4" d="
  M 2280.74 153.28
  C 2278.03 152.21 2273.30 150.25 2271.62 147.80
  Q 2270.48 146.15 2269.92 145.57
  C 2259.93 135.16 2265.10 121.07 2273.25 111.25
  C 2277.03 106.69 2283.90 108.90 2288.69 109.66
  A 1.37 1.36 8.4 0 1 2289.83 111.19
  Q 2288.78 118.85 2285.44 125.19
  Q 2283.68 128.52 2284.97 131.27
  C 2289.66 141.25 2303.51 138.14 2312.17 137.66
  Q 2323.81 137.01 2334.74 134.13
  Q 2337.50 133.41 2337.49 136.22
  L 2337.45 152.94
  A 0.60 0.60 84.8 0 1 2336.96 153.53
  Q 2322.64 156.26 2306.00 156.50
  C 2297.61 156.62 2288.34 156.29 2280.74 153.28
  Z"
/>
<path fill="#69cbf4" d="
  M 2572.95 160.10
  C 2566.18 156.34 2559.16 149.05 2557.53 141.34
  C 2554.12 125.16 2572.73 106.04 2589.27 111.80
  Q 2604.85 117.22 2608.06 132.44
  Q 2610.19 142.50 2604.94 150.59
  C 2598.74 160.15 2583.55 165.98 2572.95 160.10
  Z
  M 2572.92 143.89
  C 2576.20 147.72 2581.36 150.45 2586.50 148.75
  C 2600.23 144.22 2597.76 127.01 2584.73 123.75
  A 4.51 4.50 40.4 0 0 2581.83 123.98
  C 2574.57 127.13 2565.74 135.53 2572.92 143.89
  Z"
/>
<path fill="#69cbf4" d="
  M 1756.44 118.44
  C 1758.69 115.84 1760.82 116.00 1763.22 118.45
  C 1765.22 120.50 1767.79 122.31 1769.55 123.89
  Q 1777.11 130.72 1784.64 137.57
  C 1785.59 138.44 1786.81 138.95 1787.61 140.49
  A 1.52 1.43 0.9 0 0 1788.28 141.14
  Q 1791.25 142.55 1790.96 146.53
  Q 1790.81 148.60 1789.11 149.78
  C 1785.98 151.95 1784.32 153.35 1782.30 157.00
  C 1778.22 164.42 1773.50 157.59 1770.43 153.68
  Q 1761.22 141.95 1749.04 133.22
  Q 1745.58 130.74 1746.66 126.81
  A 2.40 2.39 82.7 0 1 1747.76 125.38
  Q 1753.20 122.18 1756.44 118.44
  Z"
/>
<rect fill="#173385" x="-3.22" y="-36.18" transform="translate(130.00,152.78) rotate(12.1)" width="6.44" height="72.36" rx="2.99"/>
<path fill="#173385" d="
  M 416.07 163.37
  L 430.98 164.60
  A 1.76 1.76 16.2 0 1 432.37 167.23
  L 424.96 180.23
  A 1.76 1.76 -42.8 0 0 424.90 181.86
  L 431.28 195.39
  A 1.76 1.76 73.5 0 1 429.70 197.90
  L 414.74 197.99
  A 1.76 1.76 -72.5 0 0 413.30 198.75
  L 404.77 211.05
  A 1.76 1.76 -41.8 0 1 401.81 210.93
  L 394.25 198.02
  A 1.76 1.76 77.9 0 0 392.87 197.15
  L 377.96 195.92
  A 1.76 1.76 -75.7 0 1 376.57 193.29
  L 383.98 180.29
  A 1.76 1.76 -43.2 0 0 384.04 178.66
  L 377.66 165.13
  A 1.76 1.76 -10.6 0 1 379.24 162.62
  L 394.20 162.53
  A 1.76 1.76 -72.8 0 0 395.64 161.77
  L 404.17 149.47
  A 1.76 1.76 41.2 0 1 407.13 149.59
  L 414.69 162.50
  A 1.76 1.76 74.2 0 0 416.07 163.37
  Z"
/>
<path fill="#173385" d="
  M 487.51 202.15
  Q 493.71 205.06 500.21 207.17
  C 502.15 207.80 503.49 209.27 501.02 210.75
  Q 497.09 213.11 490.56 217.56
  C 488.10 219.25 488.91 220.95 488.54 223.19
  Q 487.67 228.56 487.75 234.01
  Q 487.81 237.74 484.87 235.31
  L 474.02 226.32
  A 2.33 2.09 -30.9 0 0 472.00 225.93
  L 456.95 230.07
  A 0.44 0.44 72.2 0 1 456.43 229.80
  C 455.60 227.53 460.15 217.93 461.19 215.17
  Q 461.95 213.17 460.81 211.35
  Q 457.70 206.45 454.43 201.37
  C 450.57 195.38 461.62 198.12 464.38 198.34
  C 468.43 198.67 470.12 199.23 472.44 196.19
  Q 476.43 190.95 479.74 186.83
  Q 481.95 184.09 482.93 187.55
  L 486.90 201.47
  A 1.18 1.06 6.0 0 0 487.51 202.15
  Z"
/>
<path fill="#173385" d="
  M 436.48 186.71
  C 438.32 185.98 445.76 189.85 448.06 190.44
  Q 451.54 191.33 449.94 193.94
  C 447.20 198.39 440.77 194.72 436.94 192.81
  C 434.08 191.39 433.11 188.04 436.48 186.71
  Z"
/>
<path fill="#173385" d="
  M 112.79 228.19
  L 99.92 233.65
  A 1.03 1.02 -18.9 0 1 98.53 232.98
  C 98.13 231.44 100.97 222.11 101.58 219.35
  A 2.43 2.40 -57.2 0 0 101.17 217.39
  Q 97.82 212.78 93.97 209.04
  C 92.09 207.22 91.42 204.39 95.25 204.50
  Q 102.35 204.70 107.46 203.32
  A 1.24 1.13 5.8 0 0 108.20 202.77
  L 115.06 191.06
  Q 116.18 189.16 117.06 191.19
  C 118.58 194.66 121.56 204.80 125.50 205.48
  C 129.17 206.11 132.83 207.05 136.50 207.75
  Q 139.96 208.41 137.19 210.69
  Q 134.16 213.17 131.17 215.71
  C 127.89 218.50 125.98 219.29 126.83 223.48
  Q 127.81 228.31 127.46 233.95
  A 1.19 1.16 16.7 0 1 125.70 234.87
  L 113.70 228.23
  A 1.06 1.03 -41.8 0 0 112.79 228.19
  Z"
/>
<path fill="#173385" d="
  M 261.43 491.56
  A 1.72 1.72 9.2 0 1 260.25 489.93
  L 260.25 215.66
  A 1.67 1.66 -0.0 0 1 261.92 214.00
  L 335.57 213.94
  A 0.68 0.67 0.0 0 1 336.25 214.61
  L 336.25 433.93
  A 3.53 3.50 -22.8 0 1 335.23 436.40
  Q 312.95 458.70 290.69 481.19
  C 282.24 489.72 274.27 495.77 261.43 491.56
  Z"
/>
<path fill="#173385" d="
  M 686.94 724.00
  L 580.44 724.00
  Q 497.09 640.50 413.93 556.83
  Q 396.54 539.33 379.12 522.24
  A 0.97 0.97 0.0 0 0 377.76 522.24
  Q 367.52 532.26 357.52 542.52
  C 337.76 562.79 317.42 576.21 289.41 581.33
  C 279.54 583.14 265.15 583.33 258.44 582.56
  Q 202.62 576.17 172.56 530.44
  C 149.54 495.42 148.32 449.25 168.40 412.63
  C 184.12 383.98 210.50 364.52 242.37 356.09
  A 1.29 1.29 82.5 0 1 244.00 357.34
  L 244.00 436.48
  A 2.78 2.75 -22.0 0 1 243.14 438.48
  Q 229.32 451.53 230.06 469.37
  C 231.38 501.02 267.17 518.55 292.86 499.43
  Q 294.59 498.15 303.84 489.24
  Q 328.10 465.90 351.72 442.76
  A 2.69 2.59 68.8 0 0 352.52 440.85
  L 352.75 390.75
  Q 352.76 388.64 354.44 390.31
  L 378.40 414.14
  A 0.40 0.39 45.5 0 0 378.96 414.15
  C 446.34 347.82 512.49 280.75 579.45 214.42
  A 1.23 1.23 22.5 0 1 580.32 214.06
  L 683.49 214.00
  A 1.42 0.97 -15.5 0 1 684.39 214.31
  Q 685.36 215.26 684.19 216.44
  Q 558.63 342.15 433.10 467.90
  A 0.49 0.49 0.0 0 0 433.10 468.60
  C 517.38 553.37 609.07 646.10 685.44 721.81
  Q 686.74 723.10 686.94 724.00
  Z"
/>
<path fill="#173385" d="
  M 61.11 241.11
  Q 56.67 238.35 61.08 234.80
  Q 74.43 224.04 90.24 217.59
  Q 92.55 216.65 93.56 218.93
  C 95.30 222.86 92.78 223.35 89.61 224.86
  Q 75.99 231.32 63.86 240.95
  A 2.39 2.39 -48.3 0 1 61.11 241.11
  Z"
/>
<path fill="#000000" d="
  M 2075.78 451.64
  A 1.27 1.27 48.3 0 0 2075.67 453.55
  C 2076.70 454.55 2077.04 455.53 2078.21 456.35
  C 2103.78 474.22 2134.79 485.58 2165.00 492.41
  Q 2173.73 494.39 2185.25 496.25
  C 2189.14 496.88 2187.76 500.49 2186.25 502.73
  Q 2179.75 512.41 2174.06 522.59
  C 2172.64 525.12 2171.97 527.95 2170.77 530.69
  A 1.96 1.96 19.1 0 1 2168.46 531.81
  C 2166.20 531.19 2164.35 531.31 2162.20 530.44
  C 2158.23 528.82 2153.61 527.70 2149.98 526.39
  Q 2145.07 524.62 2135.25 521.25
  Q 2124.02 517.40 2109.23 510.61
  Q 2075.28 495.03 2048.66 468.84
  Q 2047.11 467.32 2045.17 466.80
  Q 2043.43 466.33 2043.90 468.07
  Q 2044.72 471.17 2044.62 473.75
  C 2044.41 478.88 2045.18 484.38 2045.20 488.83
  Q 2045.28 503.17 2045.45 517.50
  C 2045.51 522.28 2046.37 527.40 2046.66 532.40
  C 2046.75 533.76 2047.43 536.97 2046.82 538.79
  A 2.14 2.14 -80.7 0 1 2044.79 540.25
  Q 2027.88 540.25 2011.25 540.25
  C 2007.81 540.25 2008.23 538.97 2008.25 536.45
  C 2008.43 518.60 2009.83 500.21 2010.18 482.98
  C 2010.26 479.20 2011.42 473.86 2010.76 469.06
  A 1.40 1.10 -80.0 0 0 2010.31 468.22
  C 2008.03 466.41 2003.16 472.34 1999.98 475.73
  C 1992.36 483.83 1984.45 489.34 1974.08 495.97
  C 1959.82 505.10 1944.76 512.44 1929.30 519.27
  C 1918.12 524.19 1905.92 528.80 1894.01 531.50
  A 1.53 1.51 -19.6 0 1 1892.32 530.71
  Q 1884.35 514.94 1873.31 501.18
  Q 1871.77 499.27 1874.15 498.65
  Q 1885.58 495.67 1897.41 492.57
  Q 1932.90 483.29 1966.56 463.56
  C 1967.99 462.73 1985.94 452.10 1979.00 451.00
  Q 1976.02 450.53 1961.25 450.91
  C 1947.86 451.25 1934.41 450.85 1921.08 451.27
  C 1906.68 451.73 1893.38 451.12 1879.48 452.50
  A 1.29 1.29 88.3 0 1 1878.06 451.16
  Q 1878.67 437.88 1878.29 424.56
  C 1878.21 421.88 1876.99 418.37 1881.75 419.00
  Q 1888.48 419.90 1893.66 420.04
  C 1900.04 420.21 1905.56 420.72 1912.00 420.75
  Q 1959.50 420.94 2007.02 420.50
  Q 2009.94 420.47 2009.95 417.59
  L 2010.00 406.83
  Q 2010.01 404.50 2007.65 404.50
  L 1909.29 404.50
  Q 1906.63 404.50 1906.81 401.85
  Q 1907.49 391.64 1907.27 380.56
  C 1907.16 375.45 1907.47 375.83 1912.24 375.73
  C 1919.73 375.57 1928.43 376.25 1934.59 376.33
  Q 1969.54 376.81 2004.50 376.25
  Q 2005.52 376.23 2008.95 375.32
  A 0.76 0.76 -3.5 0 0 2009.51 374.69
  Q 2010.40 367.96 2010.00 363.75
  C 2009.63 359.92 2007.05 360.25 2004.11 360.25
  C 1973.95 360.25 1943.65 359.72 1913.50 360.57
  Q 1903.07 360.87 1892.13 361.02
  Q 1889.76 361.05 1889.75 358.67
  Q 1889.70 346.47 1889.75 333.48
  C 1889.76 331.02 1889.08 329.23 1892.75 329.75
  Q 1897.87 330.47 1910.00 330.41
  Q 1936.50 330.27 1963.91 330.25
  A 1.05 1.05 82.9 0 0 1964.93 328.94
  C 1962.98 321.24 1957.69 315.16 1954.13 308.28
  Q 1952.49 305.12 1948.76 305.23
  C 1940.80 305.47 1932.94 305.24 1925.00 305.39
  Q 1901.75 305.83 1877.44 306.53
  A 1.18 1.18 88.3 0 1 1876.23 305.39
  C 1875.97 296.01 1876.38 286.36 1875.90 276.78
  C 1875.62 271.40 1882.44 273.31 1885.69 273.83
  C 1891.56 274.75 1897.86 274.16 1903.82 274.36
  C 1909.96 274.57 1916.42 274.09 1922.77 274.25
  Q 1926.15 274.33 1924.37 271.46
  Q 1916.83 259.25 1906.65 249.01
  C 1903.39 245.73 1902.85 242.83 1907.69 240.94
  Q 1918.90 236.56 1930.09 232.14
  C 1937.82 229.08 1937.73 231.89 1941.27 237.30
  Q 1950.96 252.08 1958.82 267.93
  C 1960.63 271.59 1961.15 274.51 1966.14 274.38
  Q 1973.42 274.19 1979.95 274.19
  Q 1981.96 274.19 1981.98 272.18
  C 1982.16 256.34 1980.71 241.57 1981.04 226.04
  Q 1981.08 223.76 1983.38 223.76
  L 2014.97 223.82
  A 1.29 1.28 0.2 0 1 2016.26 225.11
  Q 2016.07 248.09 2015.53 269.50
  C 2015.48 271.43 2014.89 274.25 2017.75 274.25
  Q 2027.62 274.25 2038.23 274.25
  Q 2040.72 274.25 2040.76 271.76
  Q 2040.89 264.36 2040.37 256.24
  Q 2039.38 240.88 2039.99 225.72
  Q 2040.07 223.78 2042.01 223.81
  Q 2057.03 224.04 2072.00 223.75
  C 2077.07 223.65 2075.25 226.80 2075.26 229.72
  C 2075.35 244.01 2073.91 258.25 2074.30 272.48
  A 1.82 1.82 89.2 0 0 2076.12 274.25
  Q 2085.75 274.25 2094.50 274.16
  C 2097.45 274.13 2097.68 272.74 2098.95 270.69
  C 2106.70 258.22 2114.23 245.82 2118.91 231.93
  Q 2120.05 228.54 2123.65 229.98
  Q 2137.59 235.59 2151.70 240.82
  Q 2155.17 242.10 2153.67 245.49
  Q 2152.02 249.20 2149.13 253.11
  Q 2143.85 260.23 2138.77 267.49
  C 2137.66 269.08 2135.92 270.91 2135.00 273.25
  A 1.28 1.27 -80.8 0 0 2136.25 275.00
  Q 2153.72 273.91 2171.22 274.22
  C 2174.12 274.27 2181.81 270.82 2181.86 276.00
  Q 2181.99 287.86 2182.00 299.71
  C 2182.00 304.05 2182.76 307.65 2177.00 306.74
  C 2174.60 306.35 2172.49 305.82 2170.05 305.80
  C 2150.18 305.69 2130.52 305.90 2110.50 304.96
  Q 2108.50 304.87 2107.71 306.71
  C 2104.84 313.48 2100.37 319.45 2097.56 325.81
  Q 2097.04 326.99 2096.41 327.71
  A 1.87 0.88 -35.5 0 0 2095.94 328.55
  Q 2095.53 330.80 2098.50 330.75
  Q 2133.87 330.12 2167.96 329.76
  Q 2170.44 329.74 2170.27 332.21
  C 2169.75 339.74 2169.35 347.46 2170.00 354.88
  Q 2170.20 357.06 2169.59 359.20
  A 0.82 0.82 -87.1 0 1 2168.95 359.78
  C 2161.57 361.18 2154.47 360.52 2147.63 360.47
  Q 2098.75 360.08 2049.88 360.25
  C 2047.48 360.26 2045.05 359.74 2045.25 363.25
  Q 2045.60 369.27 2045.35 372.69
  A 1.76 1.40 -64.2 0 0 2045.56 373.62
  C 2047.56 376.91 2049.79 376.50 2053.21 376.50
  Q 2082.67 376.50 2112.12 376.50
  C 2123.05 376.50 2137.14 375.34 2149.63 375.73
  A 1.61 1.60 0.2 0 1 2151.19 377.29
  C 2151.38 385.17 2151.84 393.32 2152.12 401.39
  C 2152.26 405.26 2149.41 404.49 2146.75 404.50
  Q 2101.34 404.68 2055.94 404.27
  C 2052.94 404.24 2050.40 403.78 2046.88 404.47
  A 1.34 1.33 -3.9 0 0 2045.80 405.70
  C 2045.60 409.00 2044.57 417.53 2046.84 420.19
  A 1.18 1.08 -18.3 0 0 2047.68 420.57
  Q 2099.76 421.05 2151.83 420.54
  C 2156.76 420.50 2163.55 419.71 2169.50 419.99
  Q 2171.92 420.11 2177.00 419.00
  C 2181.54 418.01 2180.97 421.45 2181.02 424.37
  Q 2181.23 436.57 2181.94 448.75
  C 2182.17 452.75 2179.93 452.34 2177.01 452.22
  C 2157.70 451.46 2136.46 451.77 2118.75 451.25
  C 2109.47 450.98 2078.89 449.23 2075.78 451.64
  Z
  M 2001.76 330.33
  C 2006.46 331.75 2010.58 330.31 2014.67 330.33
  Q 2034.80 330.42 2056.22 330.24
  A 2.15 2.15 13.8 0 0 2058.10 329.10
  Q 2062.33 321.17 2066.05 313.17
  C 2067.14 310.83 2068.38 309.44 2068.23 306.55
  A 0.56 0.53 -1.1 0 0 2067.68 306.05
  Q 2048.79 305.66 2029.90 305.83
  C 2019.54 305.92 2005.62 305.48 1993.55 305.98
  A 1.43 1.40 78.1 0 0 1992.31 307.92
  L 2000.44 329.07
  A 2.16 1.98 86.2 0 0 2001.76 330.33
  Z"
/>
<path fill="#000000" d="
  M 1514.63 513.96
  Q 1511.10 510.76 1508.55 507.64
  Q 1506.71 505.40 1508.81 503.40
  C 1512.38 500.01 1513.20 497.40 1515.25 493.36
  C 1523.64 476.83 1528.66 458.59 1531.56 439.96
  C 1534.61 420.34 1535.98 400.28 1537.16 381.41
  C 1538.17 365.09 1537.50 348.29 1537.50 331.91
  C 1537.50 325.59 1536.81 318.86 1536.56 312.30
  A 1.53 1.53 84.5 0 1 1537.85 310.73
  Q 1540.38 310.32 1543.49 310.59
  C 1561.15 312.12 1579.61 311.33 1597.38 311.48
  C 1600.69 311.51 1604.61 311.83 1608.38 311.27
  A 1.50 1.50 -11.7 0 0 1609.61 309.40
  C 1607.26 300.56 1602.84 293.80 1599.91 285.55
  Q 1599.02 283.04 1596.36 283.07
  Q 1568.15 283.38 1539.13 283.25
  C 1536.49 283.24 1535.10 283.73 1535.00 280.25
  Q 1534.61 266.13 1534.76 250.67
  Q 1534.79 248.09 1537.37 248.04
  C 1548.03 247.84 1558.62 248.60 1569.25 248.48
  C 1597.76 248.16 1626.32 249.32 1654.81 248.06
  Q 1656.77 247.98 1656.00 246.00
  C 1654.95 243.32 1655.31 240.45 1654.86 238.02
  Q 1653.90 232.89 1653.42 226.95
  Q 1653.24 224.82 1655.38 224.70
  Q 1664.75 224.19 1674.74 224.21
  C 1678.62 224.22 1686.21 223.70 1691.80 224.41
  Q 1694.26 224.72 1694.03 227.16
  L 1692.20 246.51
  Q 1691.98 248.75 1694.21 248.81
  Q 1701.59 249.00 1708.75 248.92
  C 1743.23 248.58 1777.69 248.63 1812.17 247.99
  Q 1814.50 247.95 1814.50 250.28
  L 1814.50 281.12
  Q 1814.50 283.26 1812.38 283.25
  L 1753.80 283.06
  Q 1752.02 283.06 1751.27 284.65
  C 1748.25 291.07 1745.57 297.38 1742.01 303.56
  Q 1740.21 306.69 1739.36 310.25
  A 0.82 0.76 -65.9 0 0 1739.64 311.07
  C 1742.53 313.30 1750.56 311.54 1753.00 311.50
  Q 1774.80 311.10 1810.55 311.24
  C 1813.03 311.25 1815.84 310.54 1818.32 310.68
  Q 1821.15 310.84 1820.53 313.61
  Q 1819.87 316.59 1819.92 319.50
  Q 1820.12 330.85 1820.42 342.19
  A 0.97 0.95 70.8 0 1 1820.04 343.00
  Q 1816.72 345.49 1812.69 344.65
  C 1811.10 344.32 1810.03 342.88 1807.75 343.02
  C 1794.13 343.81 1778.19 343.26 1767.00 343.32
  C 1733.71 343.47 1700.88 342.57 1673.75 343.25
  C 1655.86 343.70 1641.12 342.36 1624.76 343.59
  C 1617.36 344.14 1613.53 343.52 1608.25 343.56
  Q 1582.58 343.75 1576.00 343.00
  C 1571.34 342.47 1571.97 344.51 1572.01 347.82
  C 1572.27 370.04 1573.08 393.03 1569.73 415.04
  C 1569.43 417.00 1566.78 420.33 1571.44 420.21
  A 1.44 1.32 -64.3 0 0 1572.32 419.86
  Q 1579.64 413.52 1585.81 403.56
  C 1596.63 386.11 1602.80 372.55 1609.76 352.92
  C 1610.62 350.49 1610.52 349.64 1612.93 347.85
  A 2.16 2.16 43.3 0 1 1615.38 347.78
  Q 1618.05 349.50 1620.95 350.67
  C 1623.04 351.51 1625.00 351.04 1627.44 351.81
  C 1633.00 353.57 1637.55 353.02 1642.40 355.00
  A 1.72 1.70 -80.4 0 1 1643.46 356.51
  C 1643.80 363.38 1638.78 366.41 1639.04 373.19
  A 0.56 0.55 0.6 0 0 1639.57 373.72
  C 1643.85 373.99 1649.19 373.23 1652.14 373.10
  Q 1662.72 372.64 1674.30 372.76
  A 1.72 1.72 2.3 0 0 1676.04 371.16
  Q 1676.45 365.07 1675.17 358.66
  C 1674.30 354.33 1675.52 352.33 1679.93 352.21
  Q 1693.59 351.85 1707.26 352.00
  Q 1709.90 352.03 1712.15 353.39
  C 1714.42 354.77 1712.57 358.18 1712.32 359.94
  Q 1711.46 366.22 1711.50 371.89
  A 1.65 1.65 0.2 0 0 1713.14 373.54
  C 1717.31 373.59 1721.67 373.00 1724.97 372.99
  Q 1759.22 372.85 1793.47 372.51
  Q 1793.54 372.51 1795.53 372.61
  C 1798.69 372.77 1802.73 370.48 1805.14 373.65
  A 1.55 1.34 -67.4 0 1 1805.44 374.56
  Q 1805.54 388.06 1805.50 401.56
  C 1805.50 403.88 1806.03 406.47 1802.69 406.44
  Q 1764.60 406.11 1726.50 406.18
  Q 1719.29 406.20 1712.18 407.36
  A 0.61 0.59 -4.1 0 0 1711.67 407.93
  L 1711.52 430.53
  Q 1711.50 433.50 1714.53 433.50
  Q 1732.24 433.50 1750.74 433.50
  C 1762.99 433.50 1778.16 432.46 1791.86 432.74
  Q 1793.81 432.78 1793.75 434.73
  Q 1793.37 447.43 1793.49 460.12
  C 1793.52 462.74 1794.03 464.25 1790.50 464.25
  Q 1755.00 464.25 1719.50 464.25
  Q 1714.88 464.25 1712.16 465.25
  A 0.74 0.73 80.8 0 0 1711.68 465.93
  L 1711.32 495.19
  A 1.62 1.30 -67.6 0 0 1711.59 496.11
  C 1713.33 498.49 1715.72 497.27 1717.83 497.21
  Q 1724.80 497.00 1731.78 497.09
  C 1746.12 497.27 1760.38 496.73 1774.76 496.83
  Q 1796.94 496.97 1818.70 496.02
  Q 1820.75 495.93 1820.75 497.98
  L 1820.75 529.02
  Q 1820.75 531.16 1818.61 531.20
  C 1814.51 531.28 1809.97 530.50 1806.12 530.49
  Q 1702.73 530.08 1599.33 530.24
  Q 1594.35 530.25 1585.70 530.83
  C 1580.44 531.18 1575.20 531.06 1569.96 531.38
  C 1565.99 531.63 1566.51 528.64 1566.48 525.46
  Q 1566.34 512.03 1566.72 499.42
  Q 1566.80 496.75 1569.47 496.75
  C 1577.84 496.75 1585.53 496.76 1594.41 497.05
  C 1615.13 497.72 1636.43 496.46 1655.25 496.75
  Q 1667.10 496.93 1675.00 496.53
  A 0.77 0.73 7.3 0 0 1675.67 496.04
  Q 1676.73 493.01 1676.50 491.00
  C 1675.69 483.80 1676.66 476.91 1677.02 469.75
  C 1677.32 463.84 1673.94 464.29 1669.58 464.24
  Q 1636.56 463.86 1612.50 465.25
  Q 1608.69 465.47 1606.28 464.62
  A 0.88 0.87 -85.4 0 1 1605.72 463.95
  C 1604.99 459.76 1606.25 455.46 1606.25 452.01
  C 1606.25 448.61 1606.16 445.19 1606.36 441.79
  C 1606.61 437.74 1602.96 439.43 1601.37 440.90
  Q 1596.03 445.84 1592.19 452.02
  C 1590.35 454.97 1588.19 456.91 1585.35 453.41
  Q 1581.24 448.33 1575.69 438.81
  C 1573.73 435.45 1565.96 433.01 1566.50 440.25
  Q 1566.59 441.51 1566.08 446.43
  Q 1561.95 486.07 1545.21 522.20
  Q 1542.76 527.49 1540.74 532.96
  C 1539.69 535.81 1535.16 539.02 1532.37 537.08
  Q 1531.47 536.45 1530.24 533.95
  C 1526.27 525.82 1521.35 520.07 1514.63 513.96
  Z
  M 1649.95 311.32
  Q 1651.39 312.24 1653.08 311.94
  Q 1656.10 311.41 1659.50 311.39
  Q 1678.50 311.25 1697.50 311.42
  Q 1701.09 311.45 1702.06 309.06
  C 1705.40 300.83 1710.16 293.34 1713.38 285.06
  A 1.34 1.33 10.5 0 0 1712.13 283.25
  L 1639.62 283.07
  Q 1637.14 283.06 1638.18 285.30
  Q 1642.64 294.89 1645.97 304.91
  C 1646.90 307.68 1647.26 309.61 1649.95 311.32
  Z
  M 1675.28 432.55
  A 0.56 0.56 -88.3 0 0 1675.83 432.03
  Q 1676.59 421.67 1677.00 411.00
  C 1677.14 407.43 1676.01 406.52 1672.49 406.48
  Q 1648.97 406.24 1625.56 406.44
  Q 1623.57 406.45 1622.61 408.20
  Q 1616.44 419.51 1610.26 429.19
  C 1606.88 434.49 1611.72 433.49 1614.74 433.51
  Q 1641.32 433.66 1667.90 433.28
  C 1670.11 433.25 1672.71 432.59 1675.28 432.55
  Z"
/>
<path fill="#000000" d="
  M 803.67 295.81
  Q 801.77 295.70 801.74 293.80
  Q 801.57 282.15 802.52 270.18
  C 802.79 266.83 802.51 263.42 802.66 259.94
  A 0.68 0.66 85.5 0 1 803.17 259.32
  C 806.76 258.52 810.88 259.50 813.61 259.52
  Q 871.81 259.93 930.35 259.75
  Q 932.24 259.74 932.16 257.87
  L 930.75 226.08
  A 1.04 1.04 -2.5 0 1 931.74 225.00
  Q 950.62 224.14 968.87 224.73
  Q 971.01 224.80 970.89 226.99
  L 969.25 258.02
  A 1.70 1.65 3.5 0 0 970.84 259.76
  C 976.26 260.11 983.35 259.75 987.05 259.75
  Q 1035.90 259.75 1084.75 259.74
  Q 1094.43 259.73 1104.00 258.32
  A 1.34 1.09 -26.9 0 1 1104.92 258.52
  Q 1106.75 259.89 1106.75 263.00
  Q 1106.75 277.50 1106.75 292.00
  Q 1106.75 295.32 1103.75 295.00
  C 1100.95 294.71 1096.77 296.90 1094.35 295.35
  A 1.91 1.56 57.0 0 0 1093.44 295.06
  L 1059.76 294.51
  Q 1059.46 294.51 1058.81 294.73
  Q 1058.55 294.82 1058.25 294.82
  C 964.65 294.32 901.70 294.91 850.50 294.62
  C 836.44 294.54 821.84 295.20 807.49 295.01
  Q 807.04 295.00 806.56 295.24
  Q 805.20 295.90 803.67 295.81
  Z"
/>
<path fill="#000000" d="
  M 1188.46 432.52
  A 0.65 0.65 75.9 0 0 1187.53 431.96
  C 1180.11 435.48 1174.03 441.54 1167.59 446.06
  Q 1164.92 447.93 1163.57 444.96
  Q 1161.80 441.04 1160.22 437.05
  Q 1155.61 425.38 1147.70 416.38
  Q 1145.91 414.34 1148.30 413.07
  Q 1166.57 403.32 1183.87 392.00
  C 1197.39 383.16 1210.68 372.54 1223.65 362.38
  Q 1225.26 361.12 1225.75 359.73
  Q 1226.53 357.50 1224.17 357.50
  Q 1198.88 357.50 1173.75 357.35
  Q 1167.52 357.32 1159.25 358.25
  C 1156.07 358.61 1156.77 356.04 1156.73 354.04
  Q 1156.35 338.53 1157.25 333.75
  Q 1157.86 330.50 1157.20 327.01
  Q 1156.74 324.56 1159.19 324.13
  Q 1160.85 323.83 1163.23 324.15
  Q 1170.46 325.13 1177.75 325.14
  Q 1195.36 325.16 1212.97 324.78
  C 1214.58 324.74 1216.39 323.95 1218.00 324.00
  C 1220.89 324.08 1220.75 322.44 1220.75 320.22
  Q 1220.75 307.48 1220.75 294.41
  Q 1220.75 292.54 1218.88 292.48
  C 1203.18 291.97 1187.25 293.32 1171.45 293.44
  A 0.70 0.70 89.2 0 1 1170.75 292.76
  Q 1170.26 276.83 1171.15 261.57
  A 1.90 1.89 1.0 0 1 1173.00 259.79
  C 1187.40 259.44 1201.25 260.53 1215.53 259.81
  C 1220.63 259.56 1220.81 260.35 1220.74 254.77
  Q 1220.52 238.44 1219.44 233.06
  Q 1218.50 228.39 1219.75 225.14
  A 0.75 0.72 10.3 0 1 1220.44 224.68
  L 1255.44 224.55
  A 0.91 0.83 -13.4 0 1 1256.21 224.98
  Q 1257.17 226.63 1257.00 229.75
  Q 1256.22 244.00 1255.36 256.58
  Q 1255.09 260.62 1259.24 260.50
  L 1285.86 259.75
  A 1.73 1.68 85.0 0 1 1287.57 261.23
  C 1288.36 266.70 1286.55 272.31 1286.33 277.68
  A 3.83 3.83 24.9 0 0 1287.33 280.41
  C 1289.26 282.55 1289.22 281.15 1290.14 279.84
  C 1297.73 269.11 1303.00 256.08 1307.45 243.75
  C 1308.50 240.85 1309.84 238.82 1313.17 240.35
  C 1320.16 243.56 1326.60 248.49 1333.06 252.65
  C 1336.72 255.01 1341.32 256.12 1340.48 249.31
  Q 1339.80 243.79 1339.11 236.87
  A 1.47 1.47 -2.4 0 1 1340.59 235.26
  Q 1389.75 235.76 1439.75 235.19
  Q 1444.02 235.15 1448.85 234.41
  Q 1451.51 234.00 1452.88 236.32
  C 1454.91 239.73 1456.31 244.11 1459.27 247.22
  C 1462.12 250.20 1463.43 253.01 1465.33 256.65
  Q 1466.27 258.45 1465.51 260.34
  C 1462.59 267.68 1459.20 275.25 1456.38 282.37
  Q 1443.30 315.31 1428.03 347.30
  C 1426.59 350.31 1426.67 352.92 1429.07 355.56
  C 1445.14 373.27 1456.78 397.05 1462.45 420.51
  C 1467.76 442.44 1466.99 472.26 1446.45 486.77
  C 1430.40 498.11 1411.73 496.85 1393.30 496.69
  A 1.31 1.31 89.5 0 1 1392.00 495.39
  C 1391.90 486.53 1391.08 474.99 1386.66 467.07
  Q 1385.04 464.16 1385.20 462.13
  Q 1385.41 459.64 1387.91 459.71
  Q 1402.08 460.11 1414.81 458.56
  C 1416.73 458.33 1424.44 452.39 1425.71 450.47
  C 1428.82 445.74 1427.49 434.58 1426.75 428.75
  Q 1421.59 387.80 1393.14 359.24
  C 1387.35 353.43 1392.97 346.17 1395.58 340.64
  Q 1409.35 311.53 1419.99 281.15
  C 1420.90 278.56 1422.95 274.20 1423.85 270.32
  A 1.28 1.28 -83.5 0 0 1422.60 268.75
  L 1376.18 268.75
  A 0.68 0.68 0.0 0 0 1375.50 269.43
  Q 1375.50 376.63 1375.50 484.00
  Q 1375.50 500.56 1376.17 512.84
  C 1376.47 518.31 1376.31 526.60 1377.30 533.49
  Q 1377.67 536.10 1377.41 537.52
  Q 1377.00 539.68 1374.80 539.72
  C 1363.46 539.89 1352.35 540.03 1341.24 540.18
  Q 1338.36 540.21 1338.49 537.34
  Q 1338.69 532.61 1339.25 528.25
  Q 1340.15 521.23 1340.18 485.00
  Q 1340.25 387.13 1340.24 289.25
  Q 1340.24 277.34 1341.92 265.70
  A 0.66 0.66 83.2 0 0 1341.02 264.99
  C 1334.09 267.73 1329.27 278.16 1325.98 284.53
  C 1319.34 297.41 1311.83 308.60 1303.06 319.81
  Q 1302.14 320.99 1300.90 323.19
  C 1299.18 326.24 1301.83 325.86 1303.82 325.71
  Q 1314.01 324.95 1324.21 324.34
  C 1327.37 324.15 1329.12 323.42 1329.25 327.25
  Q 1329.72 341.59 1329.45 355.30
  Q 1329.41 357.50 1327.21 357.50
  Q 1307.00 357.50 1287.00 357.50
  C 1279.57 357.50 1273.47 354.02 1268.40 361.25
  C 1265.05 366.04 1260.41 368.82 1256.72 373.23
  C 1254.38 376.02 1252.23 378.02 1249.93 380.45
  Q 1247.74 382.75 1250.91 382.75
  C 1270.24 382.75 1290.59 381.69 1310.45 381.99
  C 1313.31 382.03 1315.03 381.26 1315.00 385.25
  C 1314.76 421.13 1314.23 454.41 1314.48 489.00
  C 1314.60 505.04 1314.66 521.62 1315.52 537.79
  Q 1315.61 539.64 1313.76 539.73
  Q 1301.00 540.31 1288.75 539.83
  Q 1286.22 539.73 1283.73 540.25
  Q 1280.90 540.85 1280.69 537.96
  Q 1280.34 533.01 1280.48 527.37
  C 1280.60 522.06 1280.37 522.25 1275.26 522.25
  Q 1249.74 522.25 1223.62 522.25
  A 1.08 1.03 89.7 0 0 1222.59 523.34
  L 1222.71 537.97
  Q 1222.73 540.00 1220.65 540.11
  Q 1217.73 540.27 1214.38 540.39
  C 1205.38 540.73 1195.33 539.66 1190.00 540.25
  C 1186.42 540.65 1186.25 538.98 1186.83 536.05
  C 1187.89 530.68 1186.99 524.81 1187.55 519.28
  Q 1188.25 512.34 1188.25 509.15
  C 1188.25 487.79 1187.92 466.36 1188.54 445.00
  Q 1188.72 438.66 1188.46 432.52
  Z
  M 1255.81 295.73
  C 1256.60 304.93 1255.97 314.69 1256.27 324.24
  A 0.82 0.81 5.0 0 0 1256.92 325.01
  C 1258.80 325.39 1260.21 325.01 1261.53 323.49
  C 1267.50 316.56 1271.97 308.98 1278.35 301.55
  Q 1281.08 298.37 1282.00 296.25
  C 1283.75 292.21 1279.95 293.30 1277.97 293.15
  C 1271.99 292.69 1265.97 292.61 1260.01 292.07
  Q 1255.47 291.66 1255.81 295.73
  Z
  M 1223.18 436.56
  C 1224.35 437.24 1225.27 437.01 1226.56 436.99
  Q 1251.30 436.69 1278.03 436.21
  Q 1280.44 436.17 1280.45 433.78
  L 1280.50 413.99
  Q 1280.51 410.39 1276.89 410.48
  Q 1251.78 411.15 1224.52 410.49
  Q 1222.58 410.44 1222.59 412.43
  L 1222.74 435.79
  A 0.90 0.89 15.3 0 0 1223.18 436.56
  Z
  M 1280.3188 466.3969
  A 1.55 1.55 0.0 0 0 1278.7500 464.8659
  L 1223.8941 465.5361
  A 1.55 1.55 0.0 0 0 1222.3631 467.1050
  L 1222.6612 491.5031
  A 1.55 1.55 0.0 0 0 1224.2300 493.0341
  L 1279.0859 492.3639
  A 1.55 1.55 0.0 0 0 1280.6169 490.7950
  L 1280.3188 466.3969
  Z"
/>
<path fill="#000000" d="
  M 2462.10 495.77
  C 2432.88 468.48 2410.20 437.67 2394.68 400.56
  Q 2393.58 397.93 2391.82 395.69
  Q 2390.75 394.34 2390.25 395.99
  C 2386.70 407.89 2382.55 419.47 2376.78 430.46
  C 2350.65 480.19 2308.00 516.37 2257.61 539.16
  Q 2255.57 540.08 2254.62 538.05
  Q 2247.55 522.87 2236.81 511.19
  C 2234.12 508.26 2229.54 504.46 2235.92 501.81
  C 2273.51 486.22 2308.16 462.42 2331.84 428.83
  C 2348.65 404.99 2357.27 376.80 2362.12 348.50
  C 2362.57 345.92 2363.38 343.76 2359.25 343.98
  C 2352.56 344.35 2343.76 344.00 2339.26 344.01
  C 2302.20 344.06 2282.49 344.56 2255.25 344.75
  C 2250.67 344.78 2246.64 345.15 2242.29 345.57
  Q 2240.00 345.78 2239.99 343.52
  L 2239.76 306.17
  Q 2239.74 303.32 2242.63 303.20
  C 2248.51 302.96 2255.18 303.99 2260.46 304.08
  Q 2301.96 304.84 2343.46 304.98
  C 2351.03 305.01 2358.18 304.40 2365.59 303.76
  A 0.99 0.99 87.8 0 0 2366.50 302.77
  Q 2366.50 274.38 2366.51 246.00
  Q 2366.52 234.71 2365.75 229.50
  C 2365.01 224.47 2367.88 225.25 2371.69 225.25
  Q 2388.62 225.25 2406.07 225.25
  Q 2408.17 225.25 2408.20 227.35
  C 2408.29 234.44 2408.38 240.56 2407.56 248.53
  C 2406.60 257.84 2407.43 266.51 2406.90 277.00
  Q 2406.28 289.24 2406.52 302.49
  A 2.05 2.04 9.2 0 0 2407.90 304.39
  Q 2410.59 305.31 2413.66 305.13
  C 2423.04 304.59 2433.86 304.87 2448.75 304.75
  Q 2482.61 304.48 2516.47 304.07
  C 2522.91 303.99 2530.51 303.02 2537.52 303.00
  A 1.74 1.73 89.8 0 1 2539.25 304.73
  L 2539.51 342.64
  Q 2539.52 344.99 2537.19 345.01
  C 2532.63 345.05 2529.03 346.41 2524.29 344.89
  Q 2521.71 344.06 2519.93 344.07
  Q 2464.63 344.25 2409.69 344.06
  A 0.65 0.65 81.9 0 0 2409.07 344.89
  C 2429.56 414.67 2479.77 471.87 2548.01 498.00
  Q 2551.45 499.32 2549.34 502.34
  C 2544.64 509.04 2539.09 515.76 2535.09 522.69
  Q 2530.45 530.74 2529.94 532.94
  Q 2529.13 536.41 2527.07 538.16
  A 2.09 2.09 -52.0 0 1 2524.83 538.44
  Q 2490.06 521.88 2462.10 495.77
  Z"
/>
<path fill="#000000" d="
  M 2652.85 277.31
  Q 2654.57 277.57 2653.69 276.07
  Q 2643.45 258.49 2631.29 242.15
  Q 2628.84 238.86 2632.68 237.68
  L 2660.55 229.13
  Q 2662.86 228.42 2664.34 230.43
  Q 2679.14 250.50 2690.73 272.40
  C 2693.22 277.09 2694.80 279.04 2700.31 277.31
  C 2703.52 276.31 2707.78 277.71 2710.64 277.73
  Q 2719.41 277.78 2727.73 276.81
  Q 2730.18 276.53 2729.20 274.26
  Q 2724.28 262.82 2718.64 252.00
  C 2716.42 247.75 2712.87 242.47 2710.44 237.44
  Q 2709.60 235.71 2711.30 234.82
  Q 2716.52 232.09 2722.19 230.54
  Q 2732.08 227.84 2741.91 225.27
  Q 2744.27 224.66 2745.43 226.80
  Q 2758.00 250.01 2766.61 275.31
  Q 2767.42 277.72 2769.97 277.77
  Q 2782.03 278.00 2795.00 276.75
  C 2799.31 276.33 2800.14 272.82 2801.99 269.81
  C 2812.01 253.47 2816.43 243.35 2824.31 229.06
  C 2825.98 226.04 2827.60 226.11 2830.56 227.52
  C 2837.83 230.99 2847.02 232.65 2857.25 235.00
  C 2860.94 235.85 2860.02 239.11 2858.59 241.59
  Q 2852.25 252.60 2845.11 263.09
  C 2842.93 266.29 2838.86 271.38 2836.31 276.06
  A 1.14 1.13 15.0 0 0 2837.28 277.73
  Q 2851.07 278.06 2864.18 277.36
  C 2872.30 276.93 2879.68 277.17 2887.50 277.24
  C 2891.56 277.28 2891.50 277.18 2891.50 281.23
  Q 2891.50 319.36 2891.50 357.49
  C 2891.50 359.97 2892.80 361.96 2888.75 362.00
  C 2883.98 362.05 2874.60 362.58 2867.42 362.61
  Q 2864.30 362.62 2860.00 363.00
  C 2856.09 363.34 2856.30 360.33 2856.17 357.18
  Q 2855.31 335.93 2856.17 314.67
  C 2856.36 309.89 2855.09 309.43 2850.75 309.51
  C 2828.29 309.96 2805.70 310.36 2783.25 310.00
  C 2755.15 309.55 2715.92 310.50 2682.25 309.75
  C 2667.56 309.43 2651.64 309.89 2636.30 309.31
  A 1.74 1.74 1.0 0 0 2634.50 311.05
  Q 2634.50 334.08 2634.50 357.39
  C 2634.50 363.79 2631.70 361.62 2627.05 362.28
  C 2619.65 363.33 2612.39 363.20 2604.97 362.42
  C 2600.78 361.97 2597.67 363.32 2598.25 357.00
  C 2600.19 335.96 2599.30 314.32 2599.10 293.18
  C 2599.06 288.92 2598.19 284.01 2598.25 279.23
  Q 2598.28 277.03 2600.48 277.01
  Q 2615.96 276.88 2630.59 277.18
  C 2633.46 277.24 2638.20 278.14 2642.25 277.48
  Q 2647.96 276.55 2652.85 277.31
  Z"
/>
<path fill="#173385" d="
  M 54.62 246.27
  L 75.22 249.24
  A 1.56 1.56 -65.7 0 1 76.31 251.61
  L 65.23 269.22
  A 1.56 1.56 50.3 0 0 65.10 270.63
  L 72.83 289.94
  A 1.56 1.56 83.3 0 1 71.32 292.08
  L 50.53 291.28
  A 1.56 1.56 19.7 0 0 49.24 291.87
  L 36.38 308.23
  A 1.56 1.56 49.5 0 1 33.77 307.99
  L 24.07 289.58
  A 1.56 1.56 -9.9 0 0 22.92 288.77
  L 2.32 285.80
  A 1.56 1.56 4.5 0 1 1.23 283.43
  L 12.31 265.82
  A 1.56 1.56 51.6 0 0 12.44 264.41
  L 4.71 245.10
  A 1.56 1.56 83.0 0 1 6.22 242.96
  L 27.01 243.76
  A 1.56 1.56 -68.5 0 0 28.30 243.17
  L 41.16 226.81
  A 1.56 1.56 -36.9 0 1 43.77 227.05
  L 53.47 245.46
  A 1.56 1.56 -11.0 0 0 54.62 246.27
  Z"
/>
<rect fill="#173385" x="-3.14" y="-9.21" transform="translate(24.01,315.07) rotate(5.2)" width="6.28" height="18.42" rx="2.40"/>
<path fill="#000000" d="
  M 934.44 417.07
  C 903.79 417.68 872.95 416.89 842.49 417.42
  A 1.66 1.65 -1.4 0 1 840.80 415.82
  C 840.54 407.83 841.86 400.67 841.84 393.00
  Q 841.76 367.76 841.75 342.53
  C 841.75 334.65 840.91 325.95 840.73 317.45
  Q 840.68 315.00 843.12 315.00
  C 914.23 315.00 985.35 315.01 1056.47 315.00
  Q 1057.25 315.00 1060.44 314.37
  C 1066.83 313.10 1063.58 323.20 1063.53 326.26
  Q 1062.74 371.05 1063.82 416.19
  A 1.34 1.34 89.8 0 1 1062.46 417.56
  C 1050.78 417.38 1039.02 416.84 1027.33 417.02
  Q 1002.15 417.41 976.17 417.24
  Q 973.95 417.23 974.28 419.42
  C 974.79 422.87 974.52 426.26 974.47 429.54
  Q 973.82 470.99 974.50 485.75
  Q 975.00 496.71 973.75 514.75
  C 972.27 536.00 950.36 540.25 933.00 540.25
  Q 915.38 540.25 897.76 540.25
  A 1.63 1.33 -21.8 0 1 896.84 539.96
  C 894.38 538.08 895.18 535.99 894.77 533.65
  Q 893.68 527.31 892.06 521.07
  C 890.77 516.15 891.05 513.59 887.60 509.17
  Q 886.89 508.25 886.68 507.11
  C 886.03 503.46 889.12 504.10 891.38 504.70
  C 895.18 505.72 899.87 504.63 903.90 505.27
  Q 908.48 506.00 910.67 506.00
  C 918.14 505.99 927.08 506.92 934.29 505.04
  A 1.96 1.95 -6.7 0 0 935.76 503.19
  Q 936.76 463.14 936.75 422.53
  C 936.75 420.42 937.15 418.84 935.34 417.36
  A 1.47 1.25 -22.4 0 0 934.44 417.07
  Z
  M 996.87 348.20
  C 961.90 348.26 926.88 348.54 891.92 348.13
  Q 885.32 348.05 877.93 348.30
  A 0.95 0.94 89.7 0 0 877.02 349.23
  Q 876.93 355.13 877.05 360.38
  C 877.18 365.52 876.56 374.92 877.93 382.26
  A 0.60 0.59 84.7 0 0 878.51 382.75
  Q 943.37 382.75 1007.50 382.87
  Q 1016.25 382.89 1025.76 382.47
  Q 1028.00 382.37 1028.00 380.12
  Q 1028.00 365.60 1028.00 351.42
  C 1028.00 348.74 1027.65 347.11 1024.50 347.50
  C 1015.57 348.59 1005.12 348.18 996.87 348.20
  Z"
/>
<path fill="#173385" d="
  M 54.36 351.02
  C 51.36 354.03 48.41 356.85 45.56 360.01
  Q 44.44 361.25 44.75 362.79
  L 47.94 378.49
  Q 48.47 381.11 46.08 379.95
  L 31.21 372.70
  A 1.34 1.20 -38.9 0 0 30.27 372.65
  C 24.58 374.51 19.56 378.31 14.18 380.94
  Q 12.54 381.74 12.79 379.94
  Q 13.89 372.25 15.00 364.25
  C 15.44 361.04 6.47 353.68 4.12 351.78
  C 0.22 348.62 3.09 347.88 6.22 347.33
  C 10.30 346.61 19.95 346.25 21.75 341.96
  Q 24.46 335.55 27.44 329.56
  Q 28.63 327.16 30.06 329.43
  Q 33.41 334.77 36.27 340.37
  C 39.23 346.14 42.87 344.67 48.28 345.46
  C 51.24 345.88 60.92 344.42 54.36 351.02
  Z"
/>
<path fill="#000000" d="
  M 2896.00 413.31
  L 2896.00 446.06
  Q 2894.82 447.96 2891.50 447.75
  Q 2878.65 446.95 2855.76 446.96
  C 2827.15 446.97 2798.53 446.50 2769.92 446.26
  C 2765.77 446.22 2765.75 446.41 2765.75 450.47
  Q 2765.75 481.35 2765.75 512.23
  C 2765.75 514.88 2765.32 521.37 2763.88 523.70
  C 2756.85 535.08 2747.77 538.07 2734.95 538.42
  Q 2715.16 538.95 2695.36 538.56
  C 2692.20 538.49 2686.48 538.85 2683.00 537.75
  C 2679.15 536.53 2679.99 532.56 2679.21 529.86
  Q 2675.48 516.77 2670.92 504.22
  Q 2669.82 501.21 2672.98 501.75
  C 2677.44 502.51 2681.01 503.09 2686.05 503.20
  C 2689.44 503.27 2692.84 504.00 2696.00 504.00
  Q 2709.62 504.00 2723.25 504.00
  C 2724.01 504.00 2725.10 503.39 2726.28 503.21
  Q 2728.50 502.89 2728.50 500.00
  Q 2728.50 473.87 2728.50 447.74
  A 1.25 1.23 -83.2 0 0 2727.56 446.53
  C 2725.03 445.90 2721.92 446.50 2720.15 446.50
  C 2680.00 446.57 2639.31 446.84 2599.72 447.06
  C 2597.01 447.07 2594.51 447.79 2594.59 443.87
  Q 2595.06 421.08 2594.75 414.50
  C 2594.59 411.15 2596.37 411.72 2598.71 411.76
  C 2610.31 411.95 2622.50 412.75 2633.43 412.78
  Q 2680.30 412.90 2726.70 412.50
  A 1.75 1.75 -89.1 0 0 2728.44 410.81
  Q 2728.77 401.73 2728.10 395.20
  Q 2727.82 392.55 2730.49 392.50
  C 2736.30 392.39 2741.50 392.04 2746.78 389.13
  Q 2761.58 380.96 2777.00 370.00
  Q 2779.51 368.21 2779.36 365.44
  A 0.57 0.57 -90.0 0 0 2778.82 364.90
  Q 2776.81 364.75 2772.50 364.75
  Q 2714.88 364.75 2656.90 364.75
  Q 2654.50 364.75 2654.50 362.35
  L 2654.50 334.04
  A 1.75 1.75 -1.0 0 1 2656.19 332.29
  C 2667.43 331.91 2680.11 333.00 2689.93 333.00
  Q 2737.59 333.00 2785.25 333.00
  C 2798.15 333.00 2813.04 332.20 2827.00 332.25
  A 1.63 1.49 -25.0 0 1 2827.92 332.54
  Q 2829.77 333.89 2831.81 336.69
  Q 2834.33 340.14 2842.91 348.57
  C 2845.05 350.66 2845.97 352.97 2843.31 355.06
  Q 2826.14 368.62 2814.57 378.97
  Q 2813.58 379.86 2811.05 381.56
  C 2809.46 382.64 2807.94 384.26 2806.48 385.28
  Q 2778.30 404.98 2769.81 410.56
  Q 2768.24 411.60 2768.44 412.96
  A 0.65 0.57 -3.0 0 0 2769.06 413.45
  C 2781.30 413.80 2794.91 412.75 2805.65 412.79
  Q 2856.60 412.98 2869.00 412.50
  Q 2886.90 411.80 2891.56 411.75
  C 2893.52 411.73 2894.87 411.27 2896.00 413.31
  Z"
/>
<path fill="#173385" d="
  M 109.16 386.57
  A 2.23 2.21 -44.7 0 0 107.15 386.57
  L 94.75 392.77
  Q 92.93 393.68 93.32 391.64
  L 95.69 379.31
  Q 96.03 377.54 94.82 376.20
  C 93.09 374.27 85.74 367.65 85.52 365.71
  A 0.76 0.75 -7.5 0 1 86.16 364.88
  Q 92.62 363.87 98.25 363.00
  C 101.25 362.54 101.28 361.44 102.70 358.57
  Q 104.92 354.07 107.15 349.87
  Q 108.26 347.77 109.34 349.87
  L 114.99 360.91
  Q 115.89 362.68 117.80 362.97
  L 128.77 364.64
  Q 132.77 365.25 129.76 367.94
  Q 124.56 372.58 120.86 377.42
  A 1.12 1.10 58.9 0 0 120.65 378.30
  L 122.95 391.47
  Q 123.34 393.71 121.33 392.70
  L 109.16 386.57
  Z"
/>
<rect fill="#173385" x="-14.15" y="-3.19" transform="translate(66.23,368.32) rotate(4.5)" width="28.30" height="6.38" rx="2.61"/>
<path fill="#000000" d="
  M 800.44 503.81
  C 795.27 499.96 797.82 497.19 802.09 494.83
  C 828.39 480.30 852.28 455.08 866.92 429.62
  Q 868.35 427.14 869.93 425.47
  Q 871.56 423.75 873.68 424.81
  Q 883.80 429.85 893.36 435.86
  C 895.50 437.20 898.37 438.11 900.50 439.59
  Q 902.32 440.84 901.13 442.71
  C 885.62 467.03 869.02 488.42 846.06 508.16
  C 838.67 514.50 831.51 521.09 822.98 526.51
  Q 821.00 527.77 819.44 526.02
  Q 817.96 524.36 816.45 522.01
  Q 808.75 510.01 800.44 503.81
  Z"
/>
<path fill="#000000" d="
  M 1056.94 505.81
  C 1036.40 487.22 1018.36 466.64 1002.60 444.00
  Q 1001.14 441.91 1003.30 440.57
  Q 1013.05 434.51 1022.55 428.10
  C 1025.97 425.79 1033.23 422.46 1034.94 428.31
  C 1035.69 430.89 1037.98 433.76 1039.78 436.22
  Q 1059.96 463.87 1088.56 482.45
  C 1094.29 486.17 1102.85 490.60 1107.94 493.81
  C 1110.91 495.68 1109.33 498.43 1107.52 500.57
  Q 1102.84 506.11 1098.19 511.66
  C 1094.46 516.12 1092.36 521.23 1089.18 526.20
  Q 1087.39 528.99 1084.77 526.96
  C 1075.56 519.85 1066.30 514.29 1056.94 505.81
  Z"
/>
<path fill="#173385" d="
  M 336.09 724.00
  L 260.55 724.00
  L 260.25 600.10
  A 1.09 1.09 1.7 0 1 261.41 599.01
  Q 300.98 601.45 335.20 581.88
  A 0.70 0.70 75.1 0 1 336.25 582.49
  L 336.09 724.00
  Z"
/>
<path fill="#000000" d="
  M 1048.19 693.72
  C 1032.49 696.31 1013.10 691.07 1005.03 676.21
  Q 1001.17 669.10 999.16 661.31
  C 996.03 649.18 998.78 634.09 1005.57 623.57
  C 1018.17 604.04 1044.79 599.69 1063.45 613.47
  C 1091.01 633.82 1086.06 687.48 1048.19 693.72
  Z
  M 1023.69 670.56
  C 1029.07 676.34 1034.69 678.33 1042.25 677.87
  Q 1044.48 677.74 1046.55 676.78
  Q 1059.24 670.91 1061.50 657.00
  C 1063.44 645.03 1061.04 630.36 1049.70 624.24
  C 1037.93 617.89 1019.87 625.51 1018.37 639.85
  C 1018.14 642.04 1017.25 643.37 1017.25 645.49
  C 1017.25 650.03 1016.57 655.76 1018.02 660.07
  C 1019.59 664.71 1019.88 666.48 1023.69 670.56
  Z"
/>
<path fill="#000000" d="
  M 1208.94 685.31
  C 1196.96 676.13 1192.67 655.76 1195.00 641.50
  C 1198.72 618.76 1215.77 604.13 1239.04 605.67
  C 1251.76 606.50 1262.60 613.51 1269.65 624.13
  C 1275.81 633.41 1277.52 645.12 1276.75 656.25
  C 1274.31 691.52 1235.16 705.41 1208.94 685.31
  Z
  M 1222.44 673.31
  C 1233.59 681.58 1246.48 678.66 1253.59 667.46
  C 1262.36 653.66 1259.04 622.91 1237.75 622.00
  C 1221.80 621.32 1214.33 632.90 1213.44 647.31
  C 1212.82 657.33 1214.07 667.11 1222.44 673.31
  Z"
/>
<path fill="#000000" d="
  M 1720.19 686.02
  C 1693.15 701.94 1657.34 695.58 1648.89 661.83
  C 1647.49 656.25 1647.44 647.26 1648.40 641.33
  C 1651.91 619.78 1668.50 605.75 1690.25 605.42
  C 1706.47 605.17 1720.97 614.28 1725.49 629.96
  Q 1726.09 632.05 1723.96 632.43
  Q 1718.38 633.44 1712.96 635.79
  Q 1711.40 636.46 1710.15 635.31
  C 1702.37 628.15 1698.34 619.08 1685.48 622.37
  Q 1672.74 625.62 1668.28 638.03
  Q 1666.99 641.61 1666.99 647.15
  C 1666.99 650.28 1666.34 656.42 1667.53 659.15
  Q 1667.97 660.14 1668.22 661.20
  Q 1669.83 667.92 1674.92 672.58
  C 1678.67 676.01 1682.52 676.85 1687.09 678.44
  C 1688.99 679.10 1690.58 678.06 1692.31 677.93
  C 1695.92 677.66 1704.38 675.61 1707.81 672.77
  A 1.58 1.49 78.0 0 0 1708.31 671.95
  Q 1709.52 667.04 1708.36 662.72
  A 1.67 1.66 -7.6 0 0 1706.74 661.49
  Q 1700.95 661.54 1696.20 661.92
  C 1693.87 662.11 1692.05 662.90 1690.27 660.90
  C 1688.03 658.37 1688.55 652.23 1689.19 649.17
  Q 1689.80 646.25 1692.78 646.25
  L 1724.66 646.25
  Q 1726.46 646.25 1726.80 648.02
  C 1728.44 656.53 1727.31 665.86 1727.69 673.94
  C 1727.96 679.88 1725.32 683.00 1720.19 686.02
  Z"
/>
<path fill="#000000" d="
  M 1920.98 616.27
  C 1928.52 624.01 1933.34 632.95 1933.98 643.93
  C 1934.09 645.70 1934.75 647.43 1934.81 649.05
  C 1935.72 673.00 1922.20 691.85 1897.75 694.25
  Q 1886.82 695.32 1875.98 690.89
  C 1861.40 684.91 1853.64 670.74 1852.25 655.41
  C 1850.73 638.82 1856.33 623.00 1869.94 612.69
  C 1884.05 602.00 1908.50 603.47 1920.98 616.27
  Z
  M 1871.89 659.54
  C 1873.95 669.85 1882.84 677.76 1893.38 678.09
  C 1903.61 678.41 1911.93 669.83 1914.74 660.62
  C 1916.99 653.24 1916.50 641.08 1912.95 634.17
  C 1909.13 626.75 1903.30 622.27 1894.75 622.00
  C 1879.24 621.51 1870.50 635.02 1871.29 649.26
  C 1871.47 652.67 1871.29 656.55 1871.89 659.54
  Z"
/>
<path fill="#000000" d="
  M 2627.53 675.30
  C 2621.57 695.40 2594.92 697.54 2578.61 691.40
  C 2570.72 688.42 2565.40 682.83 2562.25 675.23
  C 2560.62 671.30 2559.82 669.94 2560.37 666.20
  A 2.27 2.26 -7.0 0 1 2561.75 664.44
  Q 2568.17 661.82 2574.14 662.44
  Q 2576.28 662.66 2577.04 664.67
  Q 2580.40 673.62 2588.56 677.69
  Q 2590.07 678.44 2591.19 678.56
  Q 2601.37 679.66 2608.24 673.04
  C 2611.67 669.74 2612.66 665.31 2607.81 662.69
  C 2599.75 658.32 2590.04 656.24 2581.19 653.81
  C 2576.80 652.61 2570.93 648.50 2567.85 644.94
  Q 2559.98 635.84 2563.62 624.47
  C 2568.93 607.94 2587.45 603.47 2602.75 606.49
  Q 2617.30 609.36 2624.37 621.91
  C 2626.44 625.58 2629.79 631.90 2623.02 633.36
  Q 2617.68 634.51 2612.50 633.25
  C 2608.94 632.38 2608.05 629.44 2605.79 627.07
  Q 2596.83 617.66 2584.00 624.00
  C 2576.66 627.63 2579.15 632.78 2585.01 635.34
  Q 2589.01 637.08 2593.25 638.13
  C 2601.45 640.16 2608.87 642.38 2615.25 645.25
  C 2627.12 650.59 2631.06 663.38 2627.53 675.30
  Z"
/>
<path fill="#000000" d="
  M 1364.69 653.07
  C 1348.90 647.89 1341.91 631.23 1351.87 617.27
  C 1362.01 603.06 1389.39 601.77 1401.89 613.32
  C 1405.52 616.66 1409.16 620.79 1410.81 625.67
  C 1415.23 638.70 1394.67 634.43 1390.88 628.40
  C 1385.76 620.26 1376.00 619.77 1367.96 624.23
  Q 1363.12 626.92 1365.29 632.13
  A 3.36 3.32 4.1 0 0 1366.70 633.74
  Q 1372.27 636.97 1377.50 638.00
  Q 1388.97 640.25 1399.56 645.19
  Q 1402.47 646.55 1403.06 646.94
  Q 1409.14 650.99 1411.53 657.42
  C 1421.21 683.53 1397.00 696.26 1375.11 694.13
  C 1359.38 692.59 1348.24 684.89 1344.94 668.97
  Q 1344.40 666.36 1346.60 664.87
  Q 1351.90 661.26 1358.46 662.70
  A 1.52 1.41 73.8 0 1 1359.26 663.18
  C 1365.30 670.11 1369.63 679.72 1380.40 678.81
  C 1386.62 678.29 1396.48 673.37 1395.78 666.10
  A 2.88 2.87 12.1 0 0 1394.32 663.86
  C 1384.80 658.55 1374.77 656.37 1364.69 653.07
  Z"
/>
<path fill="#000000" d="
  M 931.67 692.06
  A 1.15 1.14 2.7 0 1 930.57 690.86
  Q 931.23 676.48 931.50 662.00
  C 931.56 658.68 931.44 656.97 929.55 654.08
  Q 915.98 633.27 902.83 612.19
  C 901.85 610.63 900.27 609.36 902.41 607.61
  A 1.55 1.27 21.1 0 1 903.32 607.31
  L 918.99 607.25
  A 1.68 1.50 -24.9 0 1 919.91 607.53
  Q 922.45 609.29 924.06 611.94
  C 927.95 618.37 932.22 625.29 935.16 632.19
  C 936.21 634.65 938.92 638.35 942.19 638.02
  A 1.12 1.01 -74.6 0 0 942.97 637.52
  Q 944.35 635.38 947.06 629.81
  Q 953.03 617.53 958.56 609.81
  C 961.49 605.72 969.10 607.54 974.80 607.11
  C 982.75 606.52 976.42 614.44 974.89 616.89
  Q 962.02 637.49 953.50 650.25
  Q 952.34 651.98 950.06 654.10
  A 1.71 1.52 -17.6 0 0 949.57 654.92
  Q 948.81 658.23 949.00 663.75
  Q 949.59 680.78 949.25 688.75
  C 949.07 693.07 946.08 692.55 942.48 692.44
  Q 937.08 692.28 931.67 692.06
  Z"
/>
<path fill="#000000" d="
  M 838.71 656.08
  A 1.38 1.38 -32.9 0 0 836.64 655.64
  Q 831.86 659.35 827.81 662.56
  C 820.80 668.13 825.45 682.46 823.90 690.41
  Q 823.52 692.32 821.57 692.21
  C 817.09 691.95 813.05 693.48 808.15 693.18
  A 1.76 1.76 1.2 0 1 806.50 691.46
  Q 805.82 650.13 806.49 609.67
  Q 806.52 607.62 808.51 607.57
  L 819.58 607.25
  Q 823.52 607.14 823.52 611.13
  L 823.49 640.01
  Q 823.49 642.91 825.99 641.48
  Q 827.84 640.42 829.88 638.12
  C 838.94 627.93 846.98 617.56 857.20 607.66
  A 1.26 1.23 22.4 0 1 858.07 607.31
  Q 867.11 607.21 876.15 607.25
  C 878.49 607.25 879.95 608.72 878.15 610.81
  Q 865.24 625.80 850.68 639.94
  Q 849.35 641.22 850.36 642.77
  Q 864.78 664.71 879.18 686.77
  C 881.00 689.55 883.06 693.21 876.90 692.72
  Q 875.07 692.58 873.27 692.96
  Q 867.73 694.12 861.72 692.51
  C 857.59 691.41 856.68 688.57 854.69 685.06
  Q 846.37 670.42 838.71 656.08
  Z"
/>
<path fill="#000000" d="
  M 1148.54 624.31
  C 1148.49 626.28 1149.25 627.69 1149.24 629.59
  Q 1149.09 659.31 1149.25 689.85
  Q 1149.27 692.20 1146.92 692.18
  Q 1141.05 692.13 1134.15 693.31
  Q 1131.57 693.75 1131.47 691.14
  C 1130.63 669.23 1131.37 647.25 1131.25 625.36
  Q 1131.24 623.50 1129.38 623.50
  C 1122.60 623.50 1115.83 623.26 1109.31 623.59
  Q 1104.49 623.83 1106.50 618.75
  C 1107.82 615.40 1103.66 606.96 1110.67 607.50
  Q 1115.14 607.86 1115.50 607.84
  Q 1132.47 607.20 1149.44 607.46
  C 1152.01 607.50 1155.53 607.12 1158.69 607.43
  C 1163.00 607.87 1166.90 608.26 1169.75 608.00
  C 1174.92 607.52 1173.34 610.88 1173.17 613.84
  Q 1172.93 617.95 1172.78 621.52
  Q 1172.70 623.51 1170.64 623.53
  L 1149.07 623.79
  A 0.53 0.53 -89.4 0 0 1148.54 624.31
  Z"
/>
<path fill="#000000" d="
  M 1470.19 673.77
  Q 1467.18 673.56 1464.11 674.28
  A 1.95 1.94 89.6 0 0 1462.66 675.76
  C 1461.65 680.43 1457.99 693.64 1451.95 693.32
  C 1447.93 693.12 1443.85 693.27 1439.81 693.20
  A 1.20 1.08 -17.8 0 1 1438.96 692.82
  C 1436.98 690.52 1438.42 689.00 1439.30 686.76
  Q 1457.56 640.67 1463.31 625.31
  C 1465.63 619.13 1467.93 610.81 1472.40 607.60
  A 1.64 1.55 25.2 0 1 1473.31 607.30
  C 1476.85 607.23 1480.42 607.36 1483.96 607.18
  C 1488.36 606.97 1490.11 611.69 1491.62 615.23
  C 1500.26 635.45 1507.27 654.97 1514.93 673.53
  C 1515.84 675.73 1526.68 694.92 1517.50 693.00
  Q 1514.52 692.38 1510.27 692.96
  C 1507.68 693.32 1506.17 692.69 1503.80 692.07
  A 1.60 1.47 -10.3 0 1 1502.99 691.56
  C 1499.62 687.47 1498.92 680.55 1496.63 675.72
  Q 1495.90 674.17 1494.18 674.21
  Q 1481.46 674.53 1470.19 673.77
  Z
  M 1480.89 634.19
  Q 1479.83 633.36 1478.80 633.46
  A 1.27 0.96 -69.7 0 0 1478.02 633.96
  C 1475.34 637.62 1474.08 642.83 1472.90 645.93
  Q 1470.95 651.05 1470.49 656.67
  A 1.23 1.22 -87.6 0 0 1471.71 658.00
  C 1476.66 658.00 1481.88 657.73 1486.88 658.08
  Q 1489.61 658.27 1488.69 655.02
  Q 1485.71 644.51 1481.19 634.58
  Q 1481.09 634.35 1480.89 634.19
  Z"
/>
<path fill="#000000" d="
  M 1549.39 692.32
  A 1.86 1.85 -89.5 0 1 1547.56 690.45
  C 1547.82 663.52 1546.89 636.57 1548.04 609.65
  A 1.71 1.71 -1.8 0 1 1549.58 608.02
  Q 1554.99 607.47 1560.30 607.30
  C 1563.68 607.19 1565.06 608.37 1566.69 611.06
  C 1574.90 624.62 1583.51 637.68 1590.62 652.00
  Q 1591.52 653.80 1593.14 654.99
  C 1598.89 659.24 1598.83 653.29 1598.62 649.89
  Q 1597.45 631.14 1597.26 612.36
  C 1597.23 609.86 1596.65 608.77 1599.75 608.25
  C 1603.35 607.64 1614.42 605.37 1614.44 612.02
  Q 1614.59 651.35 1614.44 690.70
  Q 1614.43 692.59 1612.54 692.55
  L 1599.23 692.28
  Q 1596.90 692.23 1595.60 690.30
  C 1588.16 679.31 1581.77 667.68 1575.14 656.20
  C 1574.26 654.68 1563.89 637.48 1563.80 645.35
  C 1563.62 661.16 1564.41 675.19 1564.27 686.91
  C 1564.20 692.48 1564.43 692.17 1558.90 692.27
  Q 1553.96 692.36 1549.39 692.32
  Z"
/>
<path fill="#000000" d="
  M 1777.26 648.31
  C 1776.59 647.81 1776.37 646.78 1775.98 646.16
  Q 1765.35 629.37 1755.04 612.39
  C 1753.39 609.68 1752.10 607.48 1757.00 607.37
  Q 1764.72 607.20 1771.21 607.29
  Q 1773.17 607.32 1774.12 609.04
  Q 1780.49 620.55 1786.30 629.96
  C 1787.25 631.52 1788.59 634.71 1790.14 636.11
  Q 1792.97 638.65 1794.99 635.42
  C 1799.98 627.47 1805.01 616.41 1811.69 607.90
  A 1.13 1.11 17.0 0 1 1812.51 607.47
  Q 1825.15 606.77 1827.50 607.25
  C 1831.63 608.10 1829.78 610.59 1828.65 612.93
  Q 1826.82 616.74 1823.19 622.44
  Q 1816.53 632.88 1809.86 643.30
  C 1807.33 647.25 1801.03 653.20 1800.97 659.27
  Q 1800.75 682.15 1801.25 687.75
  C 1801.76 693.48 1798.57 692.00 1794.96 692.48
  C 1791.46 692.94 1782.69 695.67 1782.58 689.00
  Q 1782.36 676.19 1783.58 663.45
  C 1783.81 661.03 1782.89 659.14 1782.60 656.77
  C 1782.14 652.85 1779.39 652.16 1777.89 649.02
  Q 1777.71 648.64 1777.26 648.31
  Z"
/>
<path fill="#000000" d="
  M 2040.01 677.83
  C 2055.01 676.45 2053.50 665.19 2053.50 652.23
  Q 2053.50 630.86 2053.50 609.48
  A 1.76 1.75 -4.4 0 1 2054.99 607.75
  Q 2062.53 606.58 2069.73 607.64
  Q 2071.50 607.90 2071.50 609.69
  Q 2071.50 635.88 2071.50 661.50
  C 2071.50 668.32 2071.41 674.50 2068.13 680.29
  Q 2062.69 689.86 2051.94 692.69
  C 2032.78 697.72 2005.12 692.08 2004.28 667.51
  Q 2003.27 637.83 2004.93 608.28
  A 0.83 0.81 -88.1 0 1 2005.74 607.50
  L 2020.06 607.43
  A 1.70 1.66 88.9 0 1 2021.73 609.08
  Q 2022.57 637.29 2022.74 664.90
  Q 2022.76 668.19 2023.56 669.97
  C 2026.11 675.56 2034.29 678.35 2040.01 677.83
  Z"
/>
<path fill="#000000" d="
  M 2124.74 644.59
  Q 2122.39 643.00 2122.30 645.83
  C 2121.83 660.59 2123.08 673.07 2123.00 688.75
  C 2122.98 693.07 2120.96 692.24 2117.86 692.25
  Q 2112.49 692.28 2107.88 692.68
  A 1.55 1.54 -5.3 0 1 2106.22 691.31
  Q 2105.72 686.64 2105.66 682.78
  C 2105.48 670.61 2104.71 658.22 2105.25 647.50
  Q 2105.85 635.54 2105.31 627.06
  C 2104.98 621.82 2106.40 616.39 2106.00 611.25
  C 2105.67 606.99 2108.13 607.54 2111.52 607.45
  C 2114.75 607.36 2120.11 606.36 2122.77 608.38
  C 2126.07 610.88 2128.47 617.44 2130.38 620.35
  Q 2139.57 634.37 2147.59 649.10
  C 2148.86 651.44 2152.43 659.39 2156.00 655.21
  A 1.62 1.31 71.7 0 0 2156.34 654.31
  C 2156.93 644.20 2155.75 632.99 2155.75 624.31
  Q 2155.75 617.02 2155.75 609.94
  Q 2155.75 607.94 2157.73 607.75
  C 2160.70 607.47 2169.34 606.72 2171.63 608.60
  C 2173.48 610.11 2172.48 612.46 2172.55 614.07
  C 2173.61 638.88 2173.00 664.25 2173.00 689.98
  Q 2173.00 692.44 2170.54 692.43
  Q 2168.59 692.41 2165.91 692.33
  C 2163.46 692.25 2160.31 693.05 2157.25 692.25
  Q 2154.36 691.49 2153.94 690.81
  Q 2149.42 683.58 2144.94 676.32
  C 2140.09 668.46 2135.03 658.52 2129.65 649.85
  C 2128.21 647.53 2126.81 646.00 2124.74 644.59
  Z"
/>
<path fill="#000000" d="
  M 2225.33 607.69
  A 1.87 1.87 9.3 0 1 2226.68 609.56
  Q 2226.30 618.78 2226.75 628.25
  Q 2227.37 641.19 2227.25 687.75
  C 2227.24 690.76 2227.46 692.98 2223.25 692.25
  C 2220.34 691.75 2217.37 692.34 2213.25 693.25
  C 2208.13 694.39 2209.00 689.63 2209.00 686.20
  Q 2209.00 648.80 2209.00 611.40
  C 2209.00 605.13 2214.31 607.49 2218.56 607.68
  C 2220.53 607.77 2222.96 607.01 2225.33 607.69
  Z"
/>
<path fill="#000000" d="
  M 2288.57 691.68
  C 2285.39 688.30 2283.65 682.28 2282.12 677.92
  Q 2270.21 643.91 2258.00 610.00
  Q 2256.99 607.20 2259.75 607.25
  C 2263.84 607.33 2267.99 607.42 2272.07 607.11
  Q 2276.44 606.78 2277.75 610.75
  C 2279.83 617.04 2281.70 623.12 2284.02 629.60
  C 2288.13 641.10 2291.17 652.92 2295.00 664.51
  Q 2295.60 666.30 2296.77 664.83
  Q 2300.34 660.37 2302.02 654.76
  Q 2308.65 632.55 2316.49 610.74
  C 2317.31 608.43 2316.52 607.25 2320.00 607.25
  Q 2324.92 607.25 2329.85 607.25
  C 2332.03 607.25 2334.76 606.59 2334.92 609.54
  C 2335.04 611.80 2332.94 617.71 2332.14 620.01
  C 2321.60 650.37 2314.05 668.60 2307.75 689.25
  C 2306.29 694.03 2296.16 693.48 2292.30 693.24
  Q 2289.90 693.09 2288.57 691.68
  Z"
/>
<path fill="#000000" d="
  M 2383.50 624.21
  C 2383.12 626.58 2383.53 628.73 2383.15 631.23
  Q 2382.55 635.13 2383.67 638.96
  A 1.22 1.19 -84.1 0 0 2384.25 639.69
  Q 2387.33 641.39 2391.01 640.82
  C 2401.79 639.16 2412.39 640.58 2423.36 640.50
  A 1.84 1.76 -0.8 0 1 2425.22 642.23
  L 2425.43 654.07
  Q 2425.47 655.97 2423.46 656.01
  Q 2405.91 656.42 2387.84 656.26
  C 2382.57 656.21 2384.05 655.90 2383.62 660.82
  Q 2382.99 668.10 2383.66 674.60
  Q 2383.90 677.00 2386.32 677.00
  L 2427.33 677.05
  Q 2430.50 677.06 2430.50 680.48
  L 2430.50 689.77
  Q 2430.50 692.13 2428.33 692.28
  C 2408.18 693.70 2387.26 692.83 2366.61 692.25
  A 1.14 1.14 -3.2 0 1 2365.50 691.26
  Q 2365.09 688.27 2365.15 685.25
  Q 2365.93 646.78 2365.81 609.43
  Q 2365.81 607.27 2367.96 607.26
  Q 2395.68 607.12 2421.23 607.42
  C 2423.21 607.44 2425.78 606.36 2427.63 608.43
  A 1.42 1.17 -69.8 0 1 2427.94 609.31
  L 2428.07 621.22
  Q 2428.09 623.50 2425.81 623.50
  L 2384.33 623.50
  A 0.84 0.84 4.4 0 0 2383.50 624.21
  Z"
/>
<path fill="#000000" d="
  M 2530.27 677.56
  C 2532.44 680.83 2535.67 685.11 2537.51 689.43
  Q 2538.47 691.71 2536.07 692.31
  Q 2528.95 694.11 2521.86 692.91
  C 2515.10 691.76 2514.18 687.96 2511.03 682.94
  Q 2503.38 670.73 2495.06 660.94
  C 2491.68 656.96 2487.36 658.00 2482.73 658.00
  Q 2480.48 658.00 2480.51 660.25
  Q 2480.66 673.89 2481.50 688.00
  C 2481.77 692.50 2480.04 692.22 2476.59 692.25
  Q 2471.60 692.29 2466.36 693.33
  Q 2464.11 693.77 2463.61 691.54
  C 2462.77 687.80 2463.25 682.75 2463.20 679.98
  Q 2462.71 653.29 2463.38 626.60
  C 2463.51 621.22 2462.76 614.41 2463.25 608.23
  A 0.80 0.80 -88.4 0 1 2464.02 607.50
  Q 2484.45 606.90 2504.89 607.45
  Q 2505.90 607.47 2508.51 608.08
  C 2510.16 608.47 2511.91 608.15 2513.48 608.48
  C 2518.67 609.59 2523.02 611.62 2526.39 615.97
  Q 2539.22 632.54 2525.50 649.14
  C 2523.13 652.01 2519.65 652.72 2516.49 654.14
  Q 2512.90 655.77 2515.55 658.68
  Q 2523.66 667.56 2530.27 677.56
  Z
  M 2484.01 642.56
  Q 2491.22 642.50 2498.75 642.57
  C 2504.70 642.63 2513.00 642.06 2512.89 634.25
  C 2512.84 630.13 2512.44 624.52 2507.75 624.00
  Q 2496.24 622.72 2482.32 624.57
  Q 2480.49 624.82 2480.52 626.56
  L 2480.75 639.52
  Q 2480.81 642.58 2484.01 642.56
  Z"
/>
<path fill="#000000" d="
  M 2662.51 692.77
  A 1.59 1.58 -2.2 0 1 2660.81 691.20
  C 2660.73 677.29 2659.49 663.39 2660.25 649.50
  Q 2660.67 641.75 2660.74 621.76
  C 2660.75 618.69 2660.38 613.10 2660.75 608.74
  A 1.08 1.08 -89.1 0 1 2661.77 607.75
  Q 2665.97 607.51 2670.19 607.34
  C 2674.36 607.17 2678.84 606.62 2678.71 611.91
  C 2678.07 637.67 2678.75 663.71 2678.75 689.50
  C 2678.75 692.95 2676.84 692.22 2674.43 692.27
  Q 2668.21 692.39 2662.51 692.77
  Z"
/>
<path fill="#000000" d="
  M 2717.18 623.34
  Q 2714.84 623.33 2714.90 620.93
  Q 2715.05 615.22 2714.85 611.01
  Q 2714.64 606.27 2719.27 607.69
  C 2721.98 608.52 2724.54 607.76 2726.68 607.70
  Q 2751.18 606.96 2775.66 607.77
  C 2778.85 607.87 2781.46 606.27 2781.17 611.27
  Q 2780.88 616.26 2781.00 621.31
  Q 2781.05 623.50 2778.87 623.50
  L 2758.49 623.50
  A 0.99 0.99 90.0 0 0 2757.50 624.49
  L 2757.50 690.36
  A 1.82 1.81 -89.7 0 1 2755.67 692.18
  Q 2749.64 692.11 2742.21 693.35
  Q 2740.14 693.70 2739.50 691.70
  Q 2738.93 689.93 2739.25 687.00
  C 2739.97 680.37 2738.97 669.83 2739.21 661.67
  Q 2739.77 642.82 2739.45 624.33
  A 0.89 0.87 -0.7 0 0 2738.56 623.48
  L 2717.18 623.34
  Z"
/>
<path fill="#000000" d="
  M 2842.73 693.20
  Q 2840.00 692.72 2840.00 689.95
  C 2840.00 681.61 2839.77 673.44 2840.47 665.24
  C 2840.84 660.88 2840.40 656.00 2837.58 652.47
  Q 2834.77 648.95 2834.69 648.83
  Q 2822.67 629.68 2810.81 610.44
  Q 2808.84 607.24 2812.75 607.25
  L 2828.44 607.30
  Q 2830.13 607.30 2830.96 608.81
  Q 2838.44 622.31 2846.22 634.79
  Q 2849.19 639.55 2852.29 634.84
  C 2858.12 625.93 2862.14 615.83 2868.99 607.70
  A 1.07 1.06 -70.1 0 1 2869.81 607.31
  L 2885.25 607.25
  Q 2888.15 607.24 2887.00 609.75
  Q 2884.00 616.29 2880.23 622.42
  Q 2866.80 644.24 2862.69 649.44
  C 2859.89 652.97 2858.02 655.03 2857.96 659.77
  Q 2857.78 674.95 2858.46 689.39
  Q 2858.59 692.26 2855.72 692.25
  C 2851.29 692.24 2846.50 693.86 2842.73 693.20
  Z"
/>
</svg>
